<svg width="552" height="499" viewBox="0 0 552 499" fill="none" xmlns="http://www.w3.org/2000/svg">
<path d="M548.032 458.227C546.811 454.698 545.589 451.129 543.147 448.058C540.882 445.454 538.192 443.103 535.147 441.068C526.293 434.652 515.423 428.139 503.687 429.758C500.057 430.399 496.549 431.422 493.257 432.8C491.547 433.433 489.825 434.067 488.066 434.603C483.115 436.256 477.643 436.637 472.409 435.695C469.722 435.12 467.218 434.087 464.568 433.443C463.31 433.141 462.023 432.92 460.721 432.78C463.282 431.865 465.766 430.82 468.159 429.651C481.324 423.216 491.828 411.584 490.362 399.143C489.861 394.96 488.066 390.953 486.283 387.005L481.593 376.65C479.566 372.165 477.465 367.593 473.765 363.868C469.649 359.715 463.787 356.897 457.729 354.801C444.722 350.287 430.506 348.697 416.473 347.157L415.496 347.05V226.025C415.496 223.956 414.467 221.972 412.634 220.509C410.802 219.046 408.317 218.225 405.726 218.225H387.284C386.47 214.247 385.656 210.275 384.841 206.31C382.521 194.991 380.115 183.466 373.581 173.278C369.306 166.609 362.504 160.242 353.332 158.936C351.529 158.806 349.758 158.478 348.068 157.961C345.381 156.908 343.915 154.568 341.851 152.842C336.527 148.386 327.868 148.318 320.735 146.017C314.433 144.018 309.279 140.255 303.539 137.359C297.799 134.464 290.667 132.406 284.316 134.288C284.316 134.659 284.23 135.029 284.181 135.39L280.102 133.888C275.706 132.26 271.223 130.593 267.694 127.921C263.163 124.509 260.745 119.985 258.864 115.178C258.668 114.681 258.485 114.203 258.29 113.667C266.096 107.309 271.381 99.2545 273.483 90.5111L274.472 93.0753C274.695 93.6515 274.956 94.2178 275.254 94.7718C275.759 95.8433 276.6 96.7933 277.696 97.531C278.009 97.7271 278.354 97.8878 278.722 98.0088C279.06 98.1156 279.412 98.1876 279.773 98.2233C280.28 98.2733 280.794 98.2435 281.287 98.1355C282.113 97.9314 282.871 97.5819 283.505 97.1128C284.139 96.6437 284.633 96.0669 284.951 95.4251C285.146 95.0417 285.289 94.643 285.378 94.2356C285.426 93.9902 285.454 93.7427 285.464 93.4946C285.464 93.4166 285.464 93.3386 285.464 93.2606C285.464 93.1826 285.464 92.9193 285.464 92.7536C285.464 92.5878 285.464 92.5781 285.464 92.4806C285.464 92.3831 285.464 92.1588 285.403 91.9931V91.7396C285.403 91.5446 285.33 91.3496 285.281 91.1643C285.232 90.9791 285.281 91.0571 285.281 91.0084C285.22 90.7646 285.146 90.5111 285.085 90.2674C285.085 90.2089 285.085 90.1406 285.085 90.0821C285.085 90.0236 284.975 89.6824 284.914 89.4776C284.853 89.2729 284.829 89.2144 284.792 89.0779V89.0194C284.67 88.6294 284.56 88.2491 284.45 87.8591C283.563 84.4754 283.336 81.0024 283.778 77.5633C284.509 72.5163 285.676 67.5157 287.271 62.5972L287.528 61.71C287.626 61.3688 287.723 61.0275 287.809 60.6765C288.004 59.9745 288.2 59.2726 288.383 58.5608L288.822 56.7668L289.152 55.1678V54.9631C289.838 51.3398 289.981 47.6643 289.58 44.014V44.014C289.018 38.9148 287.039 34.0886 282.704 30.2472C279.638 27.527 275.596 25.5185 272.75 22.6618C270.088 19.9903 268.585 16.6949 265.825 14.0722C258.204 6.80851 238.639 1.21208 226.634 0.237098C212.882 -0.874387 190.666 1.93356 179.577 8.41722C175.473 10.8059 172.664 14.2672 169.806 17.5431C164.555 23.6368 158.595 29.7207 150.18 33.1429C147.005 34.4299 143.365 35.4049 141.252 37.6473C139.995 39.1674 139.181 40.8933 138.871 42.6978C137.253 49.0461 136.41 55.5047 136.355 61.983V61.983C136.355 62.7922 136.355 63.6015 136.355 64.4205C136.38 66.8494 137.028 69.2485 138.26 71.4696C138.455 71.8011 138.675 72.1229 138.907 72.4446L139.054 72.6494C140.531 74.335 141.838 76.1119 142.962 77.963C143.242 78.4814 143.443 79.0248 143.56 79.5815C143.77 81.0098 143.654 82.4565 143.219 83.8519V83.8519C143.219 84.0664 143.109 84.2809 143.06 84.4954L142.95 84.9147C142.95 85.0609 142.95 85.2072 142.852 85.3437C142.754 85.7629 142.669 86.1822 142.596 86.5917C142.41 87.7194 142.502 88.8652 142.864 89.9651C143.032 90.578 143.36 91.1555 143.827 91.6597C144.294 92.1639 144.89 92.5833 145.576 92.8901C146.271 93.1564 147.012 93.3403 147.774 93.4361C148.543 93.5433 149.325 93.6116 150.082 93.7481C151.056 93.9253 151.996 94.2039 152.879 94.5768C153.725 94.8999 154.517 95.306 155.236 95.7858C155.592 96.0441 155.931 96.3175 156.25 96.6048C156.895 97.1944 157.475 97.8272 157.984 98.4963C158.245 98.8408 158.489 99.1917 158.717 99.5492C159.592 100.96 160.291 102.436 160.805 103.956C161.123 104.863 161.392 105.779 161.624 106.696C161.733 107.105 161.831 107.515 161.917 107.915C162.002 108.314 162.088 108.724 162.161 109.124C162.494 109.108 162.823 109.056 163.138 108.968C164.933 108.451 165.935 106.784 166.497 105.165C166.594 104.892 166.68 104.629 166.753 104.366C167.034 103.391 167.327 102.318 167.608 101.294C172.422 109.456 180.184 116.281 189.897 120.892C190.239 121.701 190.568 122.5 190.862 123.319C192.462 127.736 193.231 132.358 190.459 136.218C188.48 138.958 185.158 140.645 181.445 141.815C180.91 141.245 180.221 140.779 179.43 140.45C176.218 139.163 172.359 140.723 169.66 142.644C164.775 146.173 160.793 151.233 154.369 152.394C152.049 152.823 149.484 152.735 147.554 153.866C146.278 154.824 145.209 155.944 144.391 157.181C142.997 158.779 141.122 160.072 138.939 160.94C136.756 161.809 134.335 162.226 131.897 162.153C129.662 162.065 127.012 161.656 125.485 162.962C124.349 163.937 124.264 165.478 123.043 166.404C121.406 167.691 118.719 167.067 116.435 166.989C112.087 166.843 108.045 169.085 105.566 171.962C103.086 174.838 101.902 178.279 100.68 181.711V181.77C100.367 181.952 100.069 182.151 99.7889 182.365C98.6048 183.372 97.6869 184.559 97.0899 185.855C87.2131 203.807 81.3835 223.01 79.8695 242.58C79.8936 243.533 79.6253 244.477 79.0878 245.329C78.5414 245.886 77.9411 246.408 77.2925 246.889C76.7122 247.456 76.2804 248.111 76.0229 248.814C75.7653 249.517 75.6872 250.254 75.7931 250.981C75.899 251.709 76.1869 252.412 76.6395 253.049C77.0922 253.685 77.7005 254.243 78.4283 254.689C78.7797 254.181 79.2197 253.714 79.7351 253.305C79.6008 253.753 79.4786 254.192 79.3931 254.592C78.9026 257.436 78.8575 260.318 79.2588 263.172C80.415 276.717 81.5834 290.253 82.764 303.78C83.0937 307.611 83.4235 311.433 83.8631 315.255C84.718 322.652 85.9393 330.02 87.527 337.358C87.6003 337.69 87.6858 338.031 87.7957 338.333C77.8421 340.858 68.9876 345.421 65.2627 353.036C63.9681 355.669 63.3819 358.535 61.7942 361.06C60.0477 363.829 57.1776 366.042 55.2724 368.753C51.9871 373.413 51.8405 379.127 53.0374 384.353C55.3457 394.541 62.2461 403.648 71.357 411.058C70.954 411.058 70.5387 411.058 70.1357 411.058C67.1591 411.321 64.3017 412.139 61.7942 413.446C42.522 422.436 31.5058 441.721 35.5239 459.329C36.3178 462.771 37.6978 466.261 40.5801 468.884C42.9759 470.969 46.0563 472.475 49.4712 473.232C51.6068 473.745 53.8058 474.072 56.0296 474.207C71.0516 475.182 85.5974 469.625 100.656 469.157C105.645 469.094 110.633 469.279 115.593 469.713C122.847 470.194 130.114 470.499 137.393 470.629C149.227 470.853 155.883 468.338 163.431 461.279C165.286 459.523 166.835 457.575 168.035 455.488C174.459 455.195 181.555 454.747 186.685 454.415L186.758 454.981C187.039 456.931 187.466 459.173 189.42 460.402C190.52 461.007 191.769 461.416 193.084 461.601C205.42 464.019 217.901 466.476 230.603 466.476C236.563 466.38 242.513 466.015 248.422 465.384L270.735 463.327C277.237 463.985 283.654 465.1 289.909 466.661C296.358 468.406 302.379 471 308.681 473.057C323.337 477.795 339.091 479.492 354.7 481.149C357.362 481.432 360.415 481.627 362.382 480.174C364.922 478.224 364.079 474.968 363.359 472.238C363.066 471.117 362.846 469.995 362.675 468.864C373.207 471.081 383.512 473.936 393.5 477.405L395.247 478.02C395.76 480.145 398.215 481.842 400.572 484.133C401.346 485.1 402.251 485.996 403.271 486.804C404.437 487.408 405.762 487.789 407.142 487.916C423.619 490.366 440.444 490.974 457.13 489.719C460.546 489.348 463.999 489.253 467.438 489.437C469.965 489.711 472.457 490.158 474.888 490.772L489.019 494.009C499.436 496.388 510.098 498.797 520.907 498.26C523.099 498.15 525.275 497.899 527.416 497.51C535.966 495.93 543.929 492.118 548.032 485.985C553.833 477.649 551.159 467.392 548.032 458.227Z" fill="url(#paint0_linear)"/>
<path d="M152.684 456.328C150.107 451.648 147.664 446.266 150.241 441.586C151.923 438.83 154.813 436.662 158.363 435.493C161.876 434.349 165.579 433.62 169.355 433.328C181.207 432.087 193.2 431.956 205.09 432.938C205.957 438.418 204.125 443.975 202.55 449.269C201.121 454.144 200.303 454.866 194.001 455.119C189.921 455.295 153.649 458.054 152.684 456.328Z" fill="#FBBEBE"/>
<path d="M261.441 424.758C357.896 424.758 436.088 407.297 436.088 385.758C436.088 364.22 357.896 346.759 261.441 346.759C164.986 346.759 86.7944 364.22 86.7944 385.758C86.7944 407.297 164.986 424.758 261.441 424.758Z" fill="#464353"/>
<path opacity="0.1" d="M261.441 424.758C357.896 424.758 436.088 407.297 436.088 385.758C436.088 364.22 357.896 346.759 261.441 346.759C164.986 346.759 86.7944 364.22 86.7944 385.758C86.7944 407.297 164.986 424.758 261.441 424.758Z" fill="black"/>
<path d="M292.755 179.881C286.769 189.116 276.826 196.327 264.738 200.2C257.602 202.276 250.091 203.415 242.499 203.574C234.206 203.876 225.742 203.447 217.95 201.185C207.496 198.162 198.812 191.981 192.303 184.776C185.793 177.571 181.311 169.342 177.415 161.045C175.363 156.726 173.409 152.124 174.374 147.561C180.664 146.42 187.552 144.743 190.801 140.287C193.573 136.465 192.804 131.883 191.204 127.515C190.752 126.277 190.227 125.048 189.701 123.868C188.48 121.041 184.267 115.669 187.259 113.251C189.127 111.72 196.956 110.94 199.655 109.946C207.972 106.884 215.642 102.458 224.777 101.005C232.679 99.7473 240.837 100.927 248.727 102.233C249.774 102.355 250.779 102.643 251.683 103.082C252.713 103.775 253.476 104.688 253.881 105.714C256.128 110.082 257.447 114.908 259.255 119.461C261.136 124.229 263.554 128.704 268.085 132.088C271.614 134.73 276.109 136.387 280.505 137.996L291.326 141.954C293.251 142.53 294.997 143.431 296.444 144.597C297.859 146.149 298.704 147.986 298.886 149.901C300.825 160.16 298.681 170.647 292.755 179.881V179.881Z" fill="#FBBEBE"/>
<path opacity="0.1" d="M259.206 119.461C250.589 126.623 239.238 131.3 226.934 132.757C214.629 134.215 202.066 132.371 191.216 127.515C190.764 126.277 190.239 125.048 189.714 123.868C188.492 121.041 184.279 115.669 187.271 113.251C189.14 111.72 196.968 110.94 199.667 109.946C207.984 106.884 215.654 102.458 224.79 101.005C232.691 99.7473 240.85 100.927 248.739 102.233C249.786 102.355 250.791 102.643 251.695 103.082C252.725 103.775 253.488 104.688 253.893 105.714C256.079 110.082 257.398 114.908 259.206 119.461Z" fill="black"/>
<path d="M218.695 131.282C249.723 131.282 274.875 111.202 274.875 86.4327C274.875 61.663 249.723 41.5833 218.695 41.5833C187.668 41.5833 162.515 61.663 162.515 86.4327C162.515 111.202 187.668 131.282 218.695 131.282Z" fill="#FBBEBE"/>
<path d="M389.861 231.993L385.244 209.666C382.912 198.463 380.506 187.046 373.984 176.955C369.697 170.344 362.895 164.046 353.723 162.739C351.916 162.611 350.14 162.283 348.447 161.765C345.76 160.731 344.294 158.411 342.23 156.695C336.905 152.288 328.234 152.219 321.102 149.977C314.8 148.027 309.646 144.273 303.906 141.407C298.165 138.54 291.021 136.532 284.67 138.365C283.644 147.091 282.557 156.012 277.916 163.958C274.896 169.131 270.465 173.7 264.948 177.33C259.431 180.96 252.967 183.56 246.03 184.939C239.093 186.319 231.857 186.443 224.851 185.303C217.846 184.162 211.249 181.787 205.542 178.349C194.66 171.807 187.686 161.716 184.438 151.157C183.644 148.583 182.74 145.628 179.772 144.449C176.56 143.162 172.701 144.722 170.002 146.613C165.117 150.113 161.123 155.125 154.699 156.305C152.378 156.734 149.814 156.646 147.884 157.767C146.601 158.712 145.528 159.823 144.709 161.053C143.303 162.639 141.425 163.92 139.243 164.781C137.062 165.642 134.646 166.057 132.215 165.986C129.98 165.898 127.329 165.489 125.803 166.786C124.667 167.761 124.581 169.282 123.36 170.188C121.711 171.466 119.037 170.842 116.741 170.773C112.393 170.627 108.35 172.85 105.859 175.648C103.367 178.447 102.195 181.908 100.974 185.262C114.322 208.993 126.536 232.753 139.884 256.484C140.51 257.379 140.842 258.385 140.849 259.409C140.582 260.473 140.013 261.473 139.188 262.334C132.642 270.729 132.85 281.288 133.57 291.155C134.291 301.022 135.17 311.445 129.65 320.288C128.148 322.715 126.194 324.938 124.765 327.366C121.418 332.865 120.209 350.454 122.163 356.362H398.276C393.012 344.809 395.015 321.623 396.114 309.358C396.883 300.778 394.893 292.208 394.038 283.628C392.169 266.108 393.488 249.484 389.861 231.993Z" fill="#E60B0B"/>
<path d="M79.8206 257.535C79.332 260.357 79.2828 263.216 79.6741 266.047L83.1792 306.285C83.509 310.077 83.8387 313.86 84.2784 317.643C85.1211 324.985 86.379 332.268 87.9423 339.541C87.9775 340.574 88.5245 341.554 89.4633 342.265C90.4021 342.976 91.656 343.36 92.9497 343.334C108.399 345.947 124.362 345.84 140.129 345.128C164.188 344.056 188.211 341.608 212.308 342.028C218.512 342.135 225.742 342.028 229.504 338.128C233.265 334.228 231.079 327.92 226.17 324.77C221.26 321.621 214.592 320.87 208.29 320.87C199.948 320.802 191.607 321.748 183.29 321.358C175.656 320.997 168.194 319.525 160.793 318.053L140.031 313.929C140.825 308.907 143.219 304.179 145.49 299.411C149.569 290.958 153.38 282.222 153.453 273.164C153.526 264.107 149.252 254.581 139.958 249.394C132.312 245.134 122.469 244.344 113.15 244.519C106.372 244.675 94.6595 243.379 88.4675 245.494C83.5701 247.21 80.7366 253.704 79.8206 257.535Z" fill="#FBBEBE"/>
<path d="M403.992 349.539C408.059 348.3 412.541 348.749 416.901 349.217C430.934 350.748 445.174 352.317 458.181 356.793C464.287 358.879 470.101 361.667 474.229 365.772C477.893 369.467 480.03 373.991 482.057 378.447L486.747 388.704C488.53 392.604 490.338 396.582 490.839 400.725C492.304 413.001 481.789 424.574 468.562 430.95C455.335 437.326 439.764 439.598 424.595 441.977C409.426 444.356 394.197 446.989 379.089 449.777C372.043 451.237 364.894 452.36 357.68 453.141C341.51 454.603 324.607 452.448 309.243 456.719C303.136 458.425 297.14 460.96 290.801 462.14C286.591 462.847 282.334 463.365 278.051 463.69L248.972 466.342C243.058 466.973 237.105 467.338 231.14 467.434C218.439 467.434 205.945 465.036 193.61 462.637C192.298 462.453 191.05 462.052 189.946 461.457C187.992 460.229 187.564 458.055 187.283 456.085C186.038 447.369 184.947 438.643 184.01 429.907C183.717 427.07 183.497 423.998 185.439 421.61C187.882 418.685 192.645 417.768 196.993 417.203C215.429 414.795 234.106 413.76 252.782 414.112C259.878 408.447 271.578 408.418 280.872 405.337C284.291 404.084 287.6 402.647 290.777 401.037C307.402 393.294 325.981 388.608 345.161 387.319C348.918 387.228 352.649 386.803 356.287 386.052C363.481 384.268 370.039 379.412 377.428 380.602C378.344 378.583 378.979 375.883 381.092 374.498C382.142 373.787 383.437 373.309 384.402 372.548C386.442 370.901 386.625 368.307 386.319 366.006C386.014 363.705 385.33 361.346 386.075 359.103C386.385 358.254 386.841 357.444 387.431 356.695C391.095 351.645 396.627 349.051 403.992 349.539Z" fill="#464353"/>
<path opacity="0.05" d="M403.992 349.539C408.059 348.3 412.541 348.749 416.901 349.217C430.934 350.748 445.174 352.317 458.181 356.793C464.287 358.879 470.101 361.667 474.229 365.772C477.893 369.467 480.03 373.991 482.057 378.447L486.747 388.704C488.53 392.604 490.338 396.582 490.839 400.725C492.304 413.001 481.789 424.574 468.562 430.95C455.335 437.326 439.764 439.598 424.595 441.977C409.426 444.356 394.197 446.989 379.089 449.777C372.043 451.237 364.894 452.36 357.68 453.141C341.51 454.603 324.607 452.448 309.243 456.719C303.136 458.425 297.14 460.96 290.801 462.14C286.591 462.847 282.334 463.365 278.051 463.69L248.972 466.342C243.058 466.973 237.105 467.338 231.14 467.434C218.439 467.434 205.945 465.036 193.61 462.637C192.298 462.453 191.05 462.052 189.946 461.457C187.992 460.229 187.564 458.055 187.283 456.085C186.038 447.369 184.947 438.643 184.01 429.907C183.717 427.07 183.497 423.998 185.439 421.61C187.882 418.685 192.645 417.768 196.993 417.203C215.429 414.795 234.106 413.76 252.782 414.112C259.878 408.447 271.578 408.418 280.872 405.337C284.291 404.084 287.6 402.647 290.777 401.037C307.402 393.294 325.981 388.608 345.161 387.319C348.918 387.228 352.649 386.803 356.287 386.052C363.481 384.268 370.039 379.412 377.428 380.602C378.344 378.583 378.979 375.883 381.092 374.498C382.142 373.787 383.437 373.309 384.402 372.548C386.442 370.901 386.625 368.307 386.319 366.006C386.014 363.705 385.33 361.346 386.075 359.103C386.385 358.254 386.841 357.444 387.431 356.695C391.095 351.645 396.627 349.051 403.992 349.539Z" fill="black"/>
<path d="M163.92 462.353C156.36 469.344 149.704 471.84 137.869 471.616C130.59 471.479 123.319 471.177 116.057 470.709C111.093 470.28 106.1 470.095 101.108 470.153C86.0371 470.621 71.4913 476.13 56.4571 475.165C54.234 475.025 52.0357 474.698 49.8987 474.19C46.488 473.44 43.4056 471.948 40.9954 469.88C38.1131 467.277 36.733 463.826 35.9392 460.413C31.9211 442.922 42.9372 423.871 62.2216 414.969C64.7378 413.672 67.598 412.861 70.5754 412.6C73.4949 412.59 76.381 413.096 79.0268 414.082L79.21 414.14C87.0448 416.714 94.1605 420.505 100.143 425.294C101.051 426.124 102.134 426.82 103.343 427.351C104.55 427.715 105.827 427.907 107.117 427.917L123.165 428.726C125.884 428.791 128.586 429.088 131.225 429.613C134.135 430.424 136.968 431.402 139.701 432.538C148.336 435.619 157.911 436.438 167.242 437.628C168.141 437.667 168.999 437.941 169.684 438.408C170.057 438.777 170.316 439.211 170.441 439.675C171.753 443.593 171.844 447.708 170.707 451.661C169.571 455.613 167.24 459.284 163.92 462.353V462.353Z" fill="#3F3D56"/>
<path opacity="0.1" d="M79.21 414.147C72.9837 418.893 67.5823 424.284 63.1498 430.175C56.037 439.899 51.5678 450.708 50.033 461.901C49.451 465.985 49.406 470.105 49.8987 474.196C46.488 473.446 43.4056 471.954 40.9954 469.887C38.1131 467.283 36.733 463.832 35.9392 460.419C31.9211 442.928 42.9372 423.877 62.2216 414.975C64.7377 413.678 67.598 412.867 70.5753 412.606C73.4949 412.597 76.381 413.103 79.0268 414.088L79.21 414.147Z" fill="black"/>
<path d="M390.02 438.408C398.996 438.213 409.072 437.852 415.667 442.678C421.957 447.241 422.787 454.768 423.203 461.544L423.679 469.412C423.826 471.811 423.948 474.287 422.739 476.51C420.589 480.41 414.69 482.292 409.304 482.067C403.918 481.843 398.972 479.962 394.05 478.265C380.688 473.669 366.775 470.171 352.526 467.823C352.99 462.382 353.763 456.968 354.846 451.58C355.591 447.845 355.713 441.596 358.84 438.495C362.15 435.219 366.461 436.994 370.955 437.598C377.262 438.367 383.647 438.638 390.02 438.408V438.408Z" fill="#FBBEBE"/>
<path d="M152.794 359.345C152.794 360.32 150.876 359.345 150.705 358.302C149.362 350.414 141.521 343.911 132.386 340.752C123.25 337.593 112.845 337.427 102.952 338.178C87.9912 339.309 71.1983 343.882 65.7268 355.045C64.4323 357.658 63.846 360.486 62.2583 362.991C60.4996 365.741 57.6296 367.934 55.7243 370.606C52.439 375.227 52.3047 380.892 53.4894 386.118C56.677 400.06 68.6213 411.984 83.0938 420.243C97.5662 428.501 114.481 433.434 131.348 437.88C175.945 449.622 221.702 458.347 268.134 463.961C275.657 464.868 283.253 465.706 290.459 467.637C296.908 469.362 302.941 471.946 309.243 473.974C323.898 478.673 339.665 480.35 355.286 481.998C357.948 482.271 361.002 482.466 362.968 481.023C365.508 479.141 364.666 475.865 363.945 473.165C361.294 462.896 363.518 452.207 370.186 443.174C372.799 439.664 376.195 436.067 375.706 432.001C375.12 427.262 369.209 423.908 363.322 423.148C357.435 422.387 351.451 423.509 345.54 424.123C343.5 424.337 341.278 424.474 339.494 423.645C338.616 423.172 337.819 422.608 337.125 421.968C333.053 418.832 327.841 416.806 322.238 416.181C316.634 415.556 310.926 416.363 305.933 418.488C303.747 419.463 300.437 417.288 298.166 416.469L272.481 407.187C242.975 396.531 213.321 385.825 182.105 379.079C179.614 378.688 177.247 377.902 175.144 376.768C173.592 375.793 172.481 374.467 171.052 373.385C167.938 371.035 163.602 370.099 159.865 368.432C156.128 366.764 151.939 362.689 152.794 359.345Z" fill="#464353"/>
<path d="M548.753 486.766C544.649 492.84 536.686 496.623 528.137 498.183C525.992 498.569 523.811 498.817 521.615 498.924C510.807 499.46 500.133 497.071 489.715 494.712L475.572 491.533C473.141 490.922 470.648 490.479 468.122 490.207C464.683 490.024 461.23 490.119 457.814 490.49C441.099 491.732 424.249 491.128 407.741 488.696C406.36 488.577 405.033 488.2 403.869 487.594C402.85 486.796 401.944 485.91 401.17 484.952C397.323 481.257 393.183 479.102 397.738 474.227C400.364 471.4 405.237 469.986 407.277 466.739C409.316 463.493 408.01 458.881 406.8 455.527C405.152 450.896 399.729 448.897 397.787 444.646C396.334 441.438 398.776 437.714 402.453 435.969C406.129 434.224 410.672 434.087 414.91 434.536C419.148 434.984 423.3 435.94 427.563 436.203C440.093 437.002 452.905 431.845 464.935 434.75C467.585 435.394 470.088 436.417 472.775 436.983C478.013 437.918 483.486 437.54 488.445 435.901C490.203 435.374 491.925 434.74 493.635 434.116C496.933 432.746 500.444 431.733 504.077 431.104C515.814 429.495 526.696 435.979 535.55 442.306C538.59 444.32 541.28 446.648 543.55 449.229C545.993 452.271 547.287 455.81 548.435 459.3C551.672 468.319 554.346 478.478 548.753 486.766Z" fill="#3F3D56"/>
<path opacity="0.1" d="M548.753 486.764C544.65 492.839 536.687 496.622 528.138 498.182C531.463 493.024 532.962 487.239 532.473 481.451C531.74 472.179 526.635 463.443 520.126 455.74C516.121 450.999 511.566 446.569 506.52 442.51C502.637 439.39 497.861 436.913 493.685 434.057C496.982 432.686 500.494 431.673 504.127 431.044C515.863 429.435 526.745 435.919 535.6 442.247C538.639 444.26 541.329 446.588 543.599 449.169C546.042 452.211 547.336 455.75 548.484 459.241C551.672 468.318 554.347 478.477 548.753 486.764Z" fill="black"/>
<path d="M100.278 185.983C99.088 186.977 98.1653 188.155 97.5664 189.444C87.6941 207.206 81.863 226.229 80.346 245.623C80.3725 246.569 80.0995 247.505 79.5521 248.343C79.0124 248.902 78.4116 249.42 77.7568 249.894C77.1622 250.456 76.7186 251.11 76.4532 251.815C76.1878 252.52 76.1064 253.261 76.214 253.992C76.3216 254.723 76.616 255.429 77.0788 256.066C77.5416 256.702 78.1631 257.256 78.9048 257.694C80.92 254.661 85.7442 253.677 90.0309 253.413C110.561 252.117 130.615 259.741 151.206 259.166C149.753 255.159 147.664 251.307 146.48 247.251C141.24 229.243 154.308 209.636 146.296 192.291C144.697 188.82 142.022 185.408 137.808 183.887C136.064 183.324 134.238 182.938 132.374 182.737C127.171 181.986 116.814 178.778 111.782 180.065C109.926 180.543 109.193 181.937 107.654 182.776C105.322 183.975 102.22 184.414 100.278 185.983Z" fill="#E50B0B"/>
<path d="M406.202 221.473H153.319C147.943 221.473 143.585 224.952 143.585 229.244V352.151C143.585 356.442 147.943 359.921 153.319 359.921H406.202C411.578 359.921 415.936 356.442 415.936 352.151V229.244C415.936 224.952 411.578 221.473 406.202 221.473Z" fill="#3F3D56"/>
<path d="M279.15 296.545C283.197 296.545 286.478 293.926 286.478 290.695C286.478 287.464 283.197 284.845 279.15 284.845C275.103 284.845 271.822 287.464 271.822 290.695C271.822 293.926 275.103 296.545 279.15 296.545Z" fill="white"/>
<path d="M179.882 13.6418C175.779 16.011 172.97 19.4137 170.112 22.6799C164.848 28.7151 158.888 34.7405 150.473 38.1042C147.286 39.3814 143.646 40.3466 141.533 42.5696C140.279 44.073 139.465 45.7825 139.152 47.5713C137.54 53.8611 136.697 60.2611 136.636 66.681C136.636 69.879 136.807 73.1745 138.578 76.0799C140.251 78.8099 143.268 81.1206 143.891 84.0943C144.367 86.4147 143.292 88.7255 142.913 91.0557C142.535 93.3859 143.194 96.1451 145.893 97.2566C147.348 97.6933 148.867 97.9784 150.412 98.1048C158.534 99.5478 161.257 107.153 162.491 113.441C165.251 113.315 166.497 110.789 167.071 108.732L175.535 78.6929C176.451 75.4364 177.977 71.6632 182.044 70.5225C184.768 69.7717 187.748 70.4737 190.593 70.6687C201.768 71.4 211.221 64.5068 222.152 62.6056C225.651 62.0419 229.228 61.8517 232.789 62.0401C241.412 62.3813 251.439 65.2088 253.271 71.6339C253.576 72.6772 253.759 73.9252 254.98 74.4419C256.202 74.9587 257.484 74.5199 258.766 74.4419C264.238 74.0032 267.462 78.9171 269.038 82.9341L274.778 97.5589C275.633 99.7721 277.074 102.375 280.078 102.658C282.851 102.931 285.208 100.835 285.623 98.7581C286.038 96.6814 285.134 94.5267 284.536 92.4402C281.837 82.8366 285.965 73.0087 288.481 63.3856C290.997 53.7625 291.449 42.7061 283.009 35.2962C279.944 32.615 275.914 30.6163 273.056 27.7888C270.393 25.1369 268.891 21.8804 266.131 19.2772C258.498 12.0916 238.92 6.54388 226.915 5.62739C213.2 4.43791 190.972 7.21662 179.882 13.6418Z" fill="#3F3D56"/>
<g opacity="0.1">
<path opacity="0.1" d="M280.127 95.8333C277.122 95.5408 275.681 92.9083 274.826 90.7341C272.913 85.8527 271 80.9777 269.086 76.1093C267.511 72.0826 264.286 67.1687 258.815 67.6172C257.533 67.7244 256.153 68.1241 255.029 67.6172C253.905 67.1102 253.624 65.8524 253.319 64.8092C251.487 58.3743 241.46 55.5566 232.838 55.2153C229.277 55.0286 225.701 55.2155 222.2 55.7711C211.27 57.721 201.817 64.5459 190.642 63.8342C187.76 63.649 184.78 62.947 182.093 63.6977C177.977 64.8287 176.499 68.5727 175.583 71.8681L167.119 101.898C166.545 103.965 165.3 106.49 162.54 106.607C161.318 100.328 158.583 92.7231 150.461 91.2801C148.917 91.1443 147.4 90.8595 145.942 90.4318C144.88 89.9685 144.048 89.2288 143.585 88.3356C143.365 89.2424 143.109 90.1491 142.962 91.0558C142.596 93.3763 143.243 96.1453 145.942 97.2567C147.396 97.6935 148.915 97.9786 150.461 98.105C158.583 99.548 161.306 107.153 162.54 113.442C165.3 113.315 166.545 110.79 167.119 108.732L175.583 78.693C176.499 75.4366 178.026 71.6634 182.093 70.5226C184.816 69.7719 187.796 70.4739 190.642 70.6689C201.817 71.4001 211.27 64.507 222.2 62.6057C225.699 62.042 229.276 61.8518 232.838 62.0402C241.46 62.3815 251.487 65.2089 253.319 71.6341C253.624 72.6773 253.808 73.9253 255.029 74.4421C256.25 74.9588 257.533 74.5201 258.815 74.4421C264.286 74.0033 267.511 78.9173 269.086 82.9342C270.991 87.8157 272.905 92.6906 274.826 97.559C275.681 99.7722 277.122 102.375 280.127 102.658C282.899 102.931 285.256 100.835 285.672 98.7582C285.859 97.0108 285.61 95.251 284.939 93.5811C284.503 94.2927 283.814 94.8859 282.958 95.2865C282.102 95.6871 281.117 95.8773 280.127 95.8333V95.8333Z" fill="black"/>
<path opacity="0.1" d="M143.903 77.2693C143.28 74.2956 140.239 71.9849 138.59 69.255C137.53 67.4137 136.916 65.4287 136.782 63.405C136.782 64.497 136.66 65.589 136.648 66.6907C136.648 69.8887 136.819 73.1841 138.59 76.0896C139.945 78.3028 142.18 80.2528 143.304 82.505C143.896 80.8028 144.099 79.0291 143.903 77.2693V77.2693Z" fill="black"/>
<path opacity="0.1" d="M288.529 56.5223C286.307 65.0242 282.838 73.6821 283.913 82.2035C284.609 75.9148 286.905 69.5871 288.529 63.3472C289.884 58.6087 290.361 53.7372 289.946 48.8882C289.681 51.4547 289.208 54.0047 288.529 56.5223Z" fill="black"/>
</g>
<g opacity="0.1">
<path opacity="0.1" d="M105.456 114.905C105.456 114.905 14.1392 84.2517 2.17045 139.563C2.17045 139.563 -4.07042 148.182 4.61306 155.299C4.61306 155.299 6.48165 151.477 15.2995 155.426C18.4489 156.816 21.7944 157.903 25.2653 158.663C29.9528 159.695 34.9336 159.483 39.4569 158.058V158.058C39.4569 158.058 69.4887 156.762 94.7453 125.396C94.7453 125.396 105.578 120.053 106.116 118.045L88.0159 119.02C88.0159 119.02 89.4082 129.598 81.9094 135.946C81.9094 135.946 88.5533 119.527 85.3657 119.069C84.7184 118.971 75.8029 119.907 75.8029 119.907C75.8029 119.907 78.1112 138.305 66.0325 147.821C66.0325 147.821 77.244 129.111 72.371 120.238L59.01 122.296C59.01 122.296 62.6739 141.649 49.4594 152.901C49.4594 152.901 60.329 133.011 56.1277 122.91L43.3406 126.342C43.3406 126.342 46.4183 145.266 35.3655 154.617C35.3655 154.617 45.0138 130.622 40.4706 127.317C40.4706 127.317 28.9659 131.041 26.511 133.167C26.511 133.167 28.3308 146.817 21.3083 151.74C21.3083 151.74 25.6195 135.166 23.4822 134.483C23.4822 134.483 10.1211 142.517 6.04198 149.449C6.04198 149.449 11.1226 138.861 21.809 132.874C21.809 132.874 12.8324 131.665 5.93207 134.659C5.93207 134.659 10.5486 127.629 25.0455 130.963C25.0455 130.963 35.7807 125.026 37.9302 125.113C37.9302 125.113 24.215 120.238 14.3102 120.843C14.3102 120.843 24.9356 115.968 41.2766 124.109L54.0392 120.434C54.0392 120.434 36.3303 113.189 27.4637 113.219C27.4637 113.219 39.2615 109.572 57.349 119.712L70.4169 117.587C70.4169 117.587 55.7613 110.42 45.8809 108.753C45.8809 108.753 57.7276 107.252 74.1908 117.089L83.1185 116.495C83.1185 116.495 72.31 111.405 69.0369 110.167C65.7638 108.929 65.9103 108.129 65.9103 108.129C73.6776 109.191 80.9238 111.952 86.8435 116.105C86.8435 116.105 105.383 115.812 105.456 114.905Z" fill="#17A2B8"/>
</g>
<g opacity="0.1">
<path opacity="0.1" d="M102.085 59.9561C102.085 59.9561 69.745 0.218611 23.1522 27.6157C23.1522 27.6157 13.3085 29.8972 13.3818 38.0481C13.3818 38.0481 17.2167 36.6246 19.6471 42.9913C20.5382 45.2496 21.7685 47.4136 23.311 49.4359C25.3496 52.1846 28.4595 54.3249 32.1654 55.5296C32.1654 55.5296 50.9369 68.419 88.3454 61.2723C88.3454 61.2723 98.6044 63.0175 100.351 62.0815L88.9194 54.4084C88.9194 54.4084 82.19 61.3308 73.1768 61.6623C73.1768 61.6623 88.8462 54.9349 87.2829 53.2091C86.9654 52.8581 80.9932 49.3677 80.9932 49.3677C80.9932 49.3677 69.2442 61.3405 55.3458 61.5258C55.3458 61.5258 75.363 55.5004 78.7948 48.0222L69.3908 43.1473C69.3908 43.1473 57.5319 56.3194 41.655 57.0019C41.655 57.0019 62.3072 50.1282 67.0215 42.2113L56.9701 38.4381C56.9701 38.4381 45.2944 51.1129 32.0921 51.5907C32.0921 51.5907 54.955 41.7238 54.6008 37.6971C54.6008 37.6971 45.1112 34.6747 42.0946 34.8502C42.0946 34.8502 33.46 43.7713 25.7536 43.5178C25.7536 43.5178 40.1527 35.6301 39.3711 34.2554C39.3711 34.2554 25.6925 32.9489 18.328 35.2304C18.328 35.2304 28.9045 31.2524 39.5177 32.5589C39.5177 32.5589 35.0477 27.7523 28.8313 26.4165C28.8313 26.4165 36.5988 24.3398 42.8274 32.9002C42.8274 32.9002 53.4283 34.2652 54.6741 35.2792C54.6741 35.2792 50.0209 26.124 43.6823 21.9998C43.6823 21.9998 53.4528 23.9498 57.3609 36.2054L67.571 39.8226C67.571 39.8226 62.2217 27.4598 56.9213 23.4526C56.9213 23.4526 66.5329 26.6505 70.0503 40.9048L79.3322 45.575C79.3322 45.575 75.7416 34.6551 71.064 29.166C71.064 29.166 79.1734 33.6704 81.9214 46.9985L87.6615 50.7034C87.6615 50.7034 84.8647 42.767 83.8022 40.5441C82.7396 38.3211 83.3991 37.9116 83.3991 37.9116C87.2571 42.0923 89.579 47.0487 90.1041 52.2244C90.1041 52.2244 101.389 60.4533 102.085 59.9561Z" fill="#17A2B8"/>
</g>
<defs>
<linearGradient id="paint0_linear" x1="293.195" y1="498.368" x2="293.195" y2="-0.0456608" gradientUnits="userSpaceOnUse">
<stop stop-color="#808080" stop-opacity="0.25"/>
<stop offset="0.54" stop-color="#808080" stop-opacity="0.12"/>
<stop offset="1" stop-color="#808080" stop-opacity="0.1"/>
</linearGradient>
</defs>
</svg>
