<svg width="720" height="369" viewBox="0 0 720 369" fill="none" xmlns="http://www.w3.org/2000/svg">
<path d="M248.978 312.485C333.385 312.485 401.81 309.8 401.81 306.487C401.81 303.174 333.385 300.489 248.978 300.489C164.571 300.489 96.1458 303.174 96.1458 306.487C96.1458 309.8 164.571 312.485 248.978 312.485Z" fill="#DFF1FF"/>
<path d="M496.957 358.16C562.639 358.16 615.886 355.474 615.886 352.161C615.886 348.849 562.639 346.163 496.957 346.163C431.274 346.163 378.027 348.849 378.027 352.161C378.027 355.474 431.274 358.16 496.957 358.16Z" fill="#DEF1FF"/>
<path d="M434.841 304.095H469.151V319.327H449.189V334.559H469.153V349.79H434.841V304.095ZM476.014 304.095H510.326V317.34H490.363V319.989H510.326V350.453H476.015V336.544H495.978V333.895H476.013L476.014 304.095ZM517.189 304.095H551.501V317.34H531.538V319.989H551.501V350.453H517.189V336.544H537.152V333.895H517.19L517.189 304.095Z" fill="black"/>
<path d="M139.848 259.622H154.002V274.467H166.951V259.622H181.106V304.577H166.952V289.524H154.003V304.577H139.849L139.848 259.622ZM199.718 274.53H187.26V259.622H226.342V274.53H213.875V304.577H199.721V274.53H199.718ZM232.545 259.622H247.303L256.382 275.418L265.452 259.622H280.217V304.577H266.12V282.295L256.382 298.279H256.138L246.394 282.295V304.577H232.545V259.622ZM287.261 259.622H301.42V289.718H321.325V304.577H287.26L287.261 259.622Z" fill="black"/>
<path d="M74.4808 320.993L72.5215 340.197L88.2013 339.067V322.688L74.4808 320.993Z" fill="#FFB8B8"/>
<path d="M60.1073 320.993L62.0675 340.197L46.3877 339.067V322.688L60.1073 320.993Z" fill="#FFB8B8"/>
<path d="M101.268 173.579C101.268 173.579 106.495 200.689 106.495 204.643C106.495 208.597 104.535 234.013 101.268 239.096C98.0014 244.179 97.348 246.438 98.6547 248.697C99.9614 250.957 99.3081 250.392 98.6547 252.086C98.0014 253.781 96.6947 253.216 98.6547 255.475C99.4551 256.47 99.8841 257.652 99.8841 258.864C99.8841 260.075 99.4551 261.258 98.6547 262.253C97.348 263.947 101.268 309.696 96.0414 313.085C90.8146 316.473 89.5079 327.769 89.5079 327.769L72.521 326.075V313.649C72.521 313.649 68.601 304.613 71.2144 298.965C73.8277 293.317 75.1344 263.382 75.1344 263.382C75.1344 263.382 74.4811 260.558 75.1344 258.864C75.7878 257.169 75.1344 256.04 73.8277 255.475C72.521 254.91 71.8677 252.651 71.8677 252.651L69.9077 211.421L62.0676 252.086C62.0676 252.086 69.9077 307.437 62.0676 314.779V327.769H45.0807L47.694 313.649C47.694 313.649 42.4673 300.659 45.0807 297.835C47.694 295.011 37.2406 249.827 38.5473 248.133C39.8539 246.438 39.2006 245.873 38.5473 244.744C37.8939 243.614 35.9339 242.485 36.5872 241.355C37.2406 240.225 36.5872 237.966 36.5872 237.966C36.5872 237.966 24.1737 184.875 30.0538 179.792C35.9339 174.709 101.268 173.579 101.268 173.579Z" fill="#2F2E41"/>
<path d="M76.441 332.852C76.441 332.852 77.7476 327.435 88.2011 329.297C88.2011 329.297 90.8145 333.982 90.8145 336.241C90.8145 338.5 93.4278 353.75 93.4278 353.75C93.4278 353.75 103.881 368.999 90.8145 368.999C77.7476 368.999 73.1742 365.046 72.5209 361.092C71.8676 357.138 73.1743 356.009 70.5609 354.314C67.9475 352.62 66.6408 352.62 67.2942 350.361C67.9475 348.102 69.2542 336.806 69.2542 336.806C69.2542 336.806 69.9075 328.334 73.5009 330.593L77.0943 332.852" fill="#2F2E41"/>
<path d="M58.1478 332.852C58.1478 332.852 56.8411 327.435 46.3876 329.297C46.3876 329.297 43.7742 333.982 43.7742 336.241C43.7742 338.5 41.1609 353.75 41.1609 353.75C41.1609 353.75 30.7074 368.999 43.7742 368.999C56.8411 368.999 61.4145 365.046 62.0678 361.092C62.7211 357.138 61.4145 356.009 64.0278 354.314C66.6412 352.62 67.9479 352.62 67.2945 350.361C66.6412 348.102 65.3345 336.806 65.3345 336.806C65.3345 336.806 64.6812 328.334 61.0878 330.593L57.4944 332.852" fill="#2F2E41"/>
<path d="M77.0946 69.6569C86.837 69.6569 94.7348 62.8294 94.7348 54.4073C94.7348 45.9852 86.837 39.1577 77.0946 39.1577C67.3521 39.1577 59.4543 45.9852 59.4543 54.4073C59.4543 62.8294 67.3521 69.6569 77.0946 69.6569Z" fill="#FFB8B8"/>
<path d="M62.7204 56.666C62.7204 56.666 55.5337 80.9524 54.227 81.5172C52.9203 82.082 84.2807 84.3412 84.2807 84.3412C84.2807 84.3412 76.4406 63.4436 84.2807 60.0548L62.7204 56.666Z" fill="#FFB8B8"/>
<path d="M58.1314 71.4665L58.1305 71.4634L36.5874 84.3417L40.5075 185.441C40.5075 185.441 69.2545 182.617 75.7879 183.182C82.3214 183.746 103.228 178.098 103.228 178.098L94.0707 83.0999C93.8917 81.2436 92.9506 79.5039 91.4173 78.1952C89.884 76.8864 87.8597 76.095 85.7103 75.964L81.7865 75.7248C81.7865 75.7248 77.8667 84.1146 66.0732 79.7863C64.0848 79.0385 62.3289 77.8951 60.9488 76.4493C59.5686 75.0035 58.6032 73.2961 58.1314 71.4665Z" fill="#D0CDE1"/>
<path d="M58.6521 70.5444L32.0138 81.5178L26.7871 146.47C26.7871 146.47 16.3336 185.441 24.8271 196.737C33.3205 208.033 47.694 209.162 47.694 209.162C47.694 209.162 66.6409 144.211 61.4142 122.183C56.1875 100.156 58.6521 70.5444 58.6521 70.5444Z" fill="#1B1B1B"/>
<path d="M8.49365 168.495V176.967C8.49365 176.967 4.57359 195.605 16.9871 195.041C29.4006 194.476 23.5205 174.708 23.5205 174.708L19.6004 168.495H8.49365Z" fill="#FFB8B8"/>
<path d="M123.482 185.441L122.175 195.042C122.175 195.042 128.708 214.245 116.295 214.81C103.881 215.375 112.892 195.16 112.892 195.16L116.948 184.311L123.482 185.441Z" fill="#FFB8B8"/>
<path d="M81.3933 73.75C93.2979 76.2849 104.329 81.2422 113.569 88.2092L113.682 88.2944L104.535 130.09L103.228 145.339C103.228 145.339 127.402 219.893 99.3082 209.161C99.3082 209.161 75.1345 144.21 78.4012 114.275C81.668 84.3408 81.3933 73.75 81.3933 73.75Z" fill="#1B1B1B"/>
<path d="M105.188 87.7304C105.841 87.1656 113.682 88.5153 113.682 88.5153C113.682 88.5153 128.055 132.35 128.055 139.692C128.055 147.034 130.015 188.83 130.015 188.83L112.769 190.332L98.8096 132.262L105.188 87.7304Z" fill="#1B1B1B"/>
<path d="M36.5872 81.5171H32.0138C32.0138 81.5171 18.9469 86.0355 18.2936 91.1187C17.6402 96.2019 0 147.599 0 147.599L4.5734 173.579L21.5603 171.32L24.827 142.515L41.8139 110.887L36.5872 81.5171Z" fill="#1B1B1B"/>
<path d="M73.6674 58.6631L74.3437 54.5873C74.5013 53.6373 75.1445 52.3883 76.2136 52.6466C77.123 52.8664 79.1043 53.5393 79.436 53.3362C80.6782 52.5754 82.558 53.9056 83.8643 53.2298C84.4116 52.9467 84.7686 52.3401 85.4047 52.2996C85.8315 52.3232 86.2336 52.4807 86.5355 52.7425C87.3835 53.38 88.3826 53.8492 89.4628 54.1172C90.0047 54.2448 90.5762 54.2447 91.1181 54.117C91.6599 53.9893 92.1524 53.7387 92.5445 53.391C92.683 53.2059 92.8696 53.0512 93.0895 52.9395C93.3475 52.8752 93.6229 52.8861 93.8731 52.9706L97.2107 53.7562C97.7016 52.2176 97.8024 50.6055 97.5062 49.0301C97.2101 47.4547 96.524 45.9532 95.4948 44.6282C94.1408 43.0393 92.4993 41.6496 90.6336 40.5125C88.5666 39.1532 86.4336 37.8746 84.2343 36.6768C81.9027 35.2507 79.2562 34.2553 76.4598 33.7528C73.6452 33.3833 70.4937 34.0444 68.7233 35.9717C67.8905 35.4507 67.2646 34.7197 66.9314 33.8791C66.7329 34.0352 66.5764 34.2271 66.4731 34.4412C66.3697 34.6553 66.322 34.8864 66.3333 35.1182C66.3446 35.35 66.4146 35.5768 66.5384 35.7827C66.6622 35.9886 66.8367 36.1684 67.0497 36.3096L64.227 34.7513C63.4334 35.4716 64.9838 36.7776 64.3077 37.5825C64.1032 37.7815 63.8408 37.9296 63.5478 38.0114C62.0151 38.5278 60.6104 39.2921 59.4088 40.2634C57.8876 41.7616 56.7738 43.5353 56.1492 45.4543C54.4672 49.6258 53.2447 54.4099 55.6345 58.3148C55.9054 58.7574 59.4817 66.0643 59.9582 66.3492C61.5689 67.3124 60.5204 64.9814 61.6745 66.3492C62.5795 67.4218 62.4101 63.3166 63.7551 64.2177C64.2824 64.5439 64.9078 64.7309 65.5556 64.7561C66.2033 64.7813 66.8456 64.6435 67.4047 64.3596C67.9623 64.0253 67.7826 62.1688 67.4817 60.464C67.4242 60.1393 67.4597 59.8073 67.585 59.4972C67.7104 59.1871 67.9219 58.9083 68.2009 58.6852C68.4799 58.4622 68.8179 58.3017 69.1854 58.2179C69.5528 58.1341 69.9384 58.1294 70.3084 58.2044C71.9836 58.5451 73.6387 58.8362 73.6674 58.6631Z" fill="#2F2E41"/>
<path opacity="0.2" d="M106.821 138.843L114.008 190.24H109.434L106.821 138.843Z" fill="black"/>
<path opacity="0.2" d="M31.0339 119.076L27.4004 138.844L34.3006 119.076H32.3404H31.0339Z" fill="black"/>
<path d="M573.596 0.225586H186.848V253.882H573.596V0.225586Z" fill="#E6E6E6"/>
<path d="M562.537 32.0396H197.907V238.874H562.537V32.0396Z" fill="white"/>
<path d="M573.431 0H186.683V16.8262H573.431V0Z" fill="#363A4B"/>
<path d="M198.893 11.7206C200.575 11.7206 201.938 10.3244 201.938 8.602C201.938 6.87965 200.575 5.4834 198.893 5.4834C197.211 5.4834 195.847 6.87965 195.847 8.602C195.847 10.3244 197.211 11.7206 198.893 11.7206Z" fill="white"/>
<path d="M210.452 11.7206C212.134 11.7206 213.497 10.3244 213.497 8.602C213.497 6.87965 212.134 5.4834 210.452 5.4834C208.77 5.4834 207.406 6.87965 207.406 8.602C207.406 10.3244 208.77 11.7206 210.452 11.7206Z" fill="white"/>
<path d="M222.011 11.7206C223.693 11.7206 225.056 10.3244 225.056 8.602C225.056 6.87965 223.693 5.4834 222.011 5.4834C220.329 5.4834 218.966 6.87965 218.966 8.602C218.966 10.3244 220.329 11.7206 222.011 11.7206Z" fill="white"/>
<path d="M459.363 51.412H340.652C340.398 51.3778 340.166 51.2505 339.997 51.0537C339.829 50.8568 339.736 50.604 339.736 50.3422C339.736 50.0805 339.829 49.8277 339.997 49.6308C340.166 49.434 340.398 49.3067 340.652 49.2725H459.363C459.617 49.3067 459.849 49.434 460.018 49.6308C460.186 49.8277 460.279 50.0805 460.279 50.3422C460.279 50.604 460.186 50.8568 460.018 51.0537C459.849 51.2505 459.617 51.3778 459.363 51.412Z" fill="#CCCCCC"/>
<path d="M377.108 63.1796H301.631C301.377 63.1454 301.145 63.018 300.976 62.8212C300.807 62.6244 300.715 62.3716 300.715 62.1098C300.715 61.8481 300.807 61.5952 300.976 61.3984C301.145 61.2016 301.377 61.0742 301.631 61.04H377.108C377.361 61.0742 377.594 61.2016 377.762 61.3984C377.931 61.5952 378.024 61.8481 378.024 62.1098C378.024 62.3716 377.931 62.6244 377.762 62.8212C377.594 63.018 377.361 63.1454 377.108 63.1796Z" fill="#CCCCCC"/>
<path d="M459.363 63.3935H383.886C383.633 63.3593 383.4 63.2319 383.231 63.0351C383.063 62.8383 382.97 62.5854 382.97 62.3237C382.97 62.0619 383.063 61.8091 383.231 61.6123C383.4 61.4155 383.633 61.2881 383.886 61.2539H459.363C459.617 61.2881 459.849 61.4155 460.018 61.6123C460.186 61.8091 460.279 62.0619 460.279 62.3237C460.279 62.5854 460.186 62.8383 460.018 63.0351C459.849 63.2319 459.617 63.3593 459.363 63.3935H459.363Z" fill="#CCCCCC"/>
<path d="M377.291 74.9472H301.814C301.56 74.913 301.328 74.7856 301.159 74.5888C300.991 74.392 300.898 74.1392 300.898 73.8774C300.898 73.6156 300.991 73.3628 301.159 73.166C301.328 72.9692 301.56 72.8418 301.814 72.8076H377.291C377.544 72.8418 377.777 72.9692 377.945 73.166C378.114 73.3628 378.207 73.6156 378.207 73.8774C378.207 74.1392 378.114 74.392 377.945 74.5888C377.777 74.7856 377.544 74.913 377.291 74.9472Z" fill="#CCCCCC"/>
<path d="M377.474 86.7153H301.997C301.744 86.6811 301.511 86.5537 301.342 86.3569C301.174 86.1601 301.081 85.9072 301.081 85.6455C301.081 85.3837 301.174 85.1309 301.342 84.9341C301.511 84.7373 301.744 84.6099 301.997 84.5757H377.474C377.728 84.6099 377.96 84.7373 378.129 84.9341C378.297 85.1309 378.39 85.3837 378.39 85.6455C378.39 85.9072 378.297 86.1601 378.129 86.3569C377.96 86.5537 377.728 86.6811 377.474 86.7153Z" fill="#CCCCCC"/>
<path d="M411.732 74.9472H390.115C389.862 74.913 389.629 74.7856 389.46 74.5888C389.292 74.392 389.199 74.1392 389.199 73.8774C389.199 73.6156 389.292 73.3628 389.46 73.166C389.629 72.9692 389.862 72.8418 390.115 72.8076H411.732C411.986 72.8418 412.218 72.9692 412.387 73.166C412.555 73.3628 412.648 73.6156 412.648 73.8774C412.648 74.1392 412.555 74.392 412.387 74.5888C412.218 74.7856 411.986 74.913 411.732 74.9472Z" fill="#CCCCCC"/>
<path d="M411.732 86.5019H390.115C389.862 86.4677 389.629 86.3403 389.46 86.1435C389.292 85.9467 389.199 85.6939 389.199 85.4321C389.199 85.1704 389.292 84.9175 389.46 84.7207C389.629 84.5239 389.862 84.3965 390.115 84.3623H411.732C411.986 84.3965 412.218 84.5239 412.387 84.7207C412.555 84.9175 412.648 85.1704 412.648 85.4321C412.648 85.6939 412.555 85.9467 412.387 86.1435C412.218 86.3403 411.986 86.4677 411.732 86.5019Z" fill="#CCCCCC"/>
<path d="M448.005 86.5019H426.388C426.134 86.4677 425.902 86.3403 425.733 86.1435C425.565 85.9467 425.472 85.6939 425.472 85.4321C425.472 85.1704 425.565 84.9175 425.733 84.7207C425.902 84.5239 426.134 84.3965 426.388 84.3623H448.005C448.259 84.3965 448.491 84.5239 448.66 84.7207C448.828 84.9175 448.921 85.1704 448.921 85.4321C448.921 85.6939 448.828 85.9467 448.66 86.1435C448.491 86.3403 448.259 86.4677 448.005 86.5019Z" fill="#CCCCCC"/>
<path d="M322.698 51.412H301.081C300.828 51.3778 300.595 51.2505 300.426 51.0537C300.258 50.8568 300.165 50.604 300.165 50.3422C300.165 50.0805 300.258 49.8277 300.426 49.6308C300.595 49.434 300.828 49.3067 301.081 49.2725H322.698C322.952 49.3067 323.184 49.434 323.353 49.6308C323.521 49.8277 323.614 50.0805 323.614 50.3422C323.614 50.604 323.521 50.8568 323.353 51.0537C323.184 51.2505 322.952 51.3778 322.698 51.412Z" fill="#CCCCCC"/>
<path d="M376.833 186.338H301.356C301.102 186.304 300.87 186.176 300.701 185.979C300.533 185.783 300.44 185.53 300.44 185.268C300.44 185.006 300.533 184.753 300.701 184.557C300.87 184.36 301.102 184.232 301.356 184.198H376.833C377.086 184.232 377.319 184.36 377.488 184.557C377.656 184.753 377.749 185.006 377.749 185.268C377.749 185.53 377.656 185.783 377.488 185.979C377.319 186.176 377.086 186.304 376.833 186.338H376.833Z" fill="#CCCCCC"/>
<path d="M376.467 209.873H300.989C300.736 209.839 300.503 209.712 300.335 209.515C300.166 209.318 300.073 209.065 300.073 208.804C300.073 208.542 300.166 208.289 300.335 208.092C300.503 207.895 300.736 207.768 300.989 207.734H376.467C376.72 207.768 376.953 207.895 377.121 208.092C377.29 208.289 377.383 208.542 377.383 208.804C377.383 209.065 377.29 209.318 377.121 209.515C376.953 209.712 376.72 209.839 376.467 209.873H376.467Z" fill="#CCCCCC"/>
<path d="M376.65 221.641H301.173C300.919 221.606 300.687 221.479 300.518 221.282C300.35 221.085 300.257 220.833 300.257 220.571C300.257 220.309 300.35 220.056 300.518 219.859C300.687 219.663 300.919 219.535 301.173 219.501H376.65C376.903 219.535 377.136 219.663 377.304 219.859C377.473 220.056 377.566 220.309 377.566 220.571C377.566 220.833 377.473 221.085 377.304 221.282C377.136 221.479 376.903 221.606 376.65 221.641H376.65Z" fill="#CCCCCC"/>
<path d="M408.892 210.087H387.275C387.022 210.053 386.789 209.925 386.621 209.728C386.452 209.532 386.359 209.279 386.359 209.017C386.359 208.755 386.452 208.502 386.621 208.306C386.789 208.109 387.022 207.981 387.275 207.947H408.892C409.146 207.981 409.378 208.109 409.547 208.306C409.716 208.502 409.808 208.755 409.808 209.017C409.808 209.279 409.716 209.532 409.547 209.728C409.378 209.925 409.146 210.053 408.892 210.087Z" fill="#CCCCCC"/>
<path d="M408.892 221.641H387.275C387.022 221.606 386.789 221.479 386.621 221.282C386.452 221.085 386.359 220.833 386.359 220.571C386.359 220.309 386.452 220.056 386.621 219.859C386.789 219.663 387.022 219.535 387.275 219.501H408.892C409.146 219.535 409.378 219.663 409.547 219.859C409.716 220.056 409.808 220.309 409.808 220.571C409.808 220.833 409.716 221.085 409.547 221.282C409.378 221.479 409.146 221.606 408.892 221.641Z" fill="#CCCCCC"/>
<path d="M445.166 210.087H423.548C423.295 210.053 423.062 209.925 422.894 209.728C422.725 209.532 422.632 209.279 422.632 209.017C422.632 208.755 422.725 208.502 422.894 208.306C423.062 208.109 423.295 207.981 423.548 207.947H445.166C445.419 207.981 445.652 208.109 445.82 208.306C445.989 208.502 446.082 208.755 446.082 209.017C446.082 209.279 445.989 209.532 445.82 209.728C445.652 209.925 445.419 210.053 445.166 210.087Z" fill="#CCCCCC"/>
<path d="M459.455 198.105H340.743C340.49 198.071 340.257 197.943 340.089 197.747C339.92 197.55 339.827 197.297 339.827 197.035C339.827 196.773 339.92 196.521 340.089 196.324C340.257 196.127 340.49 196 340.743 195.965H459.455C459.708 196 459.941 196.127 460.109 196.324C460.278 196.521 460.371 196.773 460.371 197.035C460.371 197.297 460.278 197.55 460.109 197.747C459.941 197.943 459.708 198.071 459.455 198.105Z" fill="#CCCCCC"/>
<path d="M322.79 198.105H301.173C300.919 198.071 300.687 197.943 300.518 197.747C300.35 197.55 300.257 197.297 300.257 197.035C300.257 196.773 300.35 196.521 300.518 196.324C300.687 196.127 300.919 196 301.173 195.965H322.79C323.043 196 323.276 196.127 323.444 196.324C323.613 196.521 323.706 196.773 323.706 197.035C323.706 197.297 323.613 197.55 323.444 197.747C323.276 197.943 323.043 198.071 322.79 198.105Z" fill="#CCCCCC"/>
<path d="M358.605 105.724L329.293 135.366L358.605 165.009L365.2 158.255L343.033 135.554L365.383 112.665L358.605 105.724Z" fill="#E6E6E6"/>
<path d="M401.84 105.724L431.151 135.366L401.84 165.009L395.245 158.255L417.411 135.554L395.061 112.665L401.84 105.724Z" fill="#E6E6E6"/>
<path d="M358.605 105.724L329.293 135.366L358.605 165.009L365.2 158.255L343.033 135.554L365.383 112.665L358.605 105.724Z" fill="#363A4B"/>
<path d="M401.84 105.724L431.151 135.366L401.84 165.009L395.245 158.255L417.411 135.554L395.061 112.665L401.84 105.724Z" fill="#363A4B"/>
<path d="M700.729 293.999V326.467H691.67L685.632 292.453L700.729 293.999Z" fill="#FFB9B9"/>
<path d="M629.016 293.999V326.467H619.958L613.919 292.453L629.016 293.999Z" fill="#FFB9B9"/>
<path d="M676.803 54.6548C676.803 54.6548 662.247 43.9404 660.427 49.0647C658.608 54.1889 671.345 63.5057 671.345 63.5057L676.803 54.6548Z" fill="#FFB9B9"/>
<path d="M625.174 68.3974C625.174 86.9213 632.962 87.4969 645.649 87.4969C658.336 87.4969 671.117 86.9213 671.117 68.3974C671.117 49.8735 660.832 34.8569 648.146 34.8569C635.459 34.8569 625.174 49.8735 625.174 68.3974Z" fill="#2F2E41"/>
<path d="M656.333 68.1639C656.333 68.1639 654.514 82.1391 663.156 83.0708C671.799 84.0024 634.954 86.7975 634.954 86.7975C634.954 86.7975 644.506 77.9465 639.502 70.9589C634.499 63.9713 656.333 68.1639 656.333 68.1639Z" fill="#FFB9B9"/>
<path d="M702.277 317.854L705.461 345.339C705.461 345.339 721.382 365.37 711.374 363.973C701.367 362.575 694.998 364.27 694.998 362.406C694.998 360.543 694.763 353.886 693.399 353.886C692.034 353.886 690.905 364.398 690.905 364.398C690.905 364.398 686.811 364.081 686.356 363.615C685.901 363.149 685.446 336.488 685.446 336.488C685.446 336.488 684.081 328.569 686.811 324.842C689.54 321.115 689.085 317.855 689.085 317.855L702.277 317.854Z" fill="#2F2E41"/>
<path d="M629.809 317.553L632.994 345.038C632.994 345.038 648.915 365.069 638.907 363.671C628.9 362.274 622.531 363.969 622.531 362.105C622.531 360.242 622.296 353.584 620.931 353.584C619.567 353.584 618.437 364.097 618.437 364.097C618.437 364.097 614.343 363.78 613.888 363.314C613.433 362.848 612.979 336.187 612.979 336.187C612.979 336.187 611.614 328.268 614.343 324.541C617.073 320.814 616.618 317.553 616.618 317.553H629.809Z" fill="#2F2E41"/>
<path d="M678.623 154.344C678.623 154.344 693.179 196.736 694.089 206.052C694.999 215.369 693.179 247.046 693.179 247.046C693.179 247.046 706.371 301.779 703.641 302.245C700.912 302.71 685.713 304.919 685.258 302.59C684.803 300.261 683.181 296.655 683.636 295.257C684.091 293.86 682.272 288.735 682.272 285.94C682.272 283.145 675.893 268.475 676.348 266.146C676.803 263.817 668.615 229.345 667.251 226.549C665.886 223.754 662.247 204.189 662.247 204.189C662.247 204.189 641.777 261.488 641.322 262.885C640.867 264.283 639.048 266.612 639.958 267.078C640.867 267.543 638.593 270.804 638.593 270.804C638.593 270.804 633.879 290.133 633.879 291.064C633.879 291.996 634.789 302.542 632.97 303.008C631.15 303.473 612.564 303.444 611.654 300.183C610.745 296.922 621.307 259.158 621.307 259.158C621.307 259.158 629.04 235.4 626.766 229.345C624.491 223.289 629.04 186.953 630.86 184.158C632.679 181.363 633.134 164.593 633.134 164.593L678.623 154.344Z" fill="#2F2E41"/>
<path d="M648.373 75.8509C656.412 75.8509 662.929 69.1768 662.929 60.944C662.929 52.7111 656.412 46.0371 648.373 46.0371C640.333 46.0371 633.816 52.7111 633.816 60.944C633.816 69.1768 640.333 75.8509 648.373 75.8509Z" fill="#FFB9B9"/>
<path d="M656.333 79.81C656.333 79.81 639.958 80.2759 639.048 78.8783C638.138 77.4808 615.394 82.1392 615.394 91.456C615.394 100.773 628.585 137.108 628.585 137.108C628.585 137.108 633.589 163.195 632.225 165.99C630.86 168.786 682.717 159.935 681.352 155.276C679.988 150.618 672.254 140.369 682.262 131.518C692.269 122.667 696.363 113.351 696.363 113.351L684.536 81.2075C684.536 81.2075 672.709 79.3441 669.98 81.2075C667.251 83.0709 656.333 79.81 656.333 79.81Z" fill="#5A001B"/>
<path d="M693.179 115.68L696.363 113.351C696.363 113.351 725.931 81.6734 718.198 75.6175C710.465 69.5616 699.093 63.9715 693.634 63.5056C688.175 63.0398 683.626 58.8473 683.626 58.8473C683.626 58.8473 677.713 48.1329 673.164 55.1205C668.615 62.1081 663.611 64.4373 669.98 66.7665C676.348 69.0957 680.442 68.1641 683.626 70.4933C686.811 72.8225 699.093 76.5492 693.634 77.9467C690.504 78.7237 687.456 79.816 684.536 81.2076L678.623 91.9219L693.179 115.68Z" fill="#5A001B"/>
<path d="M641.777 194.407C641.777 194.407 653.604 212.109 644.961 211.177C636.318 210.246 632.224 198.134 632.224 198.134L641.777 194.407Z" fill="#FFB9B9"/>
<path d="M618.578 89.1265L615.394 91.4557C615.394 91.4557 604.931 150.152 615.394 165.524C625.856 180.897 626.766 179.965 626.766 179.965C626.766 179.965 628.585 178.568 629.495 187.885C630.405 197.201 629.04 200.928 631.769 200.928C634.499 200.928 646.781 198.133 645.871 195.804C644.961 193.475 639.048 179.965 638.593 176.704C638.138 173.444 635.863 165.99 634.954 161.798C634.044 157.605 639.048 155.276 636.773 146.425C634.499 137.574 631.315 121.735 631.315 118.474C631.315 115.214 618.578 89.1265 618.578 89.1265Z" fill="#5A001B"/>
<path d="M634.271 47.6669C634.271 52.6838 640.992 56.7508 649.283 56.7508C657.573 56.7508 665.204 59.4385 665.204 54.4216C665.204 49.4047 657.573 38.583 649.283 38.583C640.992 38.583 634.271 42.65 634.271 47.6669Z" fill="#2F2E41"/>
<path d="M670.981 71.5405C670.981 71.5405 671.593 88.4278 655.207 87.4961C638.82 86.5644 657.421 73.0611 657.421 73.0611L670.981 71.5405Z" fill="#2F2E41"/>
<path d="M720 367.798H12.0183V369H720V367.798Z" fill="#3F3D56"/>
</svg>
