<svg width="329" height="317" viewBox="0 0 329 317" fill="none" xmlns="http://www.w3.org/2000/svg">
<path d="M326.635 291.098C325.907 288.856 325.179 286.589 323.724 284.638C322.374 282.984 320.77 281.49 318.956 280.197C313.678 276.121 307.2 271.984 300.205 273.012C298.041 273.419 295.951 274.069 293.988 274.945C292.969 275.347 291.943 275.75 290.895 276.09C287.944 277.14 284.683 277.383 281.563 276.784C279.961 276.419 278.469 275.762 276.889 275.353C276.139 275.162 275.373 275.021 274.597 274.932C276.123 274.351 277.603 273.687 279.03 272.944C286.876 268.856 293.137 261.467 292.263 253.564C291.965 250.906 290.895 248.361 289.832 245.852L287.037 239.275C285.828 236.425 284.576 233.521 282.371 231.154C279.918 228.516 276.424 226.726 272.813 225.394C265.061 222.527 256.588 221.517 248.224 220.538L247.642 220.47V143.587C247.642 142.272 247.028 141.012 245.936 140.083C244.844 139.154 243.363 138.632 241.818 138.632H230.827C230.342 136.104 229.856 133.582 229.371 131.063C227.988 123.872 226.554 116.551 222.66 110.078C220.112 105.842 216.058 101.797 210.591 100.967C209.517 100.885 208.461 100.676 207.454 100.348C205.852 99.6787 204.979 98.1922 203.749 97.0959C200.575 94.2654 195.414 94.222 191.163 92.7603C187.407 91.4905 184.335 89.0997 180.914 87.2602C177.493 85.4206 173.242 84.1137 169.456 85.3091C169.456 85.5445 169.405 85.7799 169.376 86.009L166.945 85.0552C164.325 84.0208 161.653 82.9617 159.549 81.2646C156.849 79.0968 155.408 76.2228 154.287 73.1693C154.17 72.8534 154.061 72.5499 153.945 72.2093C158.597 68.1702 161.747 63.0534 163 57.499L163.589 59.128C163.722 59.494 163.878 59.8537 164.055 60.2057C164.356 60.8863 164.858 61.4899 165.511 61.9585C165.698 62.0831 165.903 62.1852 166.123 62.262C166.324 62.3299 166.534 62.3757 166.749 62.3983C167.051 62.4301 167.357 62.4112 167.651 62.3425C168.143 62.2129 168.595 61.9908 168.973 61.6928C169.351 61.3948 169.646 61.0284 169.835 60.6207C169.951 60.3772 170.036 60.1239 170.09 59.865C170.118 59.7091 170.135 59.5519 170.141 59.3943C170.141 59.3447 170.141 59.2952 170.141 59.2456C170.141 59.1961 170.141 59.0288 170.141 58.9236C170.141 58.8183 170.141 58.8121 170.141 58.7501C170.141 58.6882 170.141 58.5457 170.104 58.4404V58.2794C170.104 58.1555 170.061 58.0316 170.031 57.914C170.002 57.7963 170.031 57.8458 170.031 57.8149C169.995 57.66 169.951 57.499 169.915 57.3441C169.915 57.307 169.915 57.2636 169.915 57.2265C169.915 57.1893 169.849 56.9725 169.813 56.8424C169.777 56.7124 169.762 56.6752 169.74 56.5885V56.5513C169.668 56.3036 169.602 56.062 169.536 55.8143C169.007 53.6647 168.872 51.4584 169.136 49.2736C169.572 46.0674 170.267 42.8907 171.218 39.7661L171.371 39.2025C171.429 38.9857 171.487 38.7689 171.538 38.546C171.655 38.1 171.771 37.6541 171.88 37.2019L172.142 36.0622L172.339 35.0465V34.9164C172.748 32.6146 172.833 30.2797 172.594 27.9608V27.9608C172.259 24.7214 171.08 21.6555 168.496 19.2151C166.669 17.4871 164.259 16.2111 162.563 14.3964C160.976 12.6993 160.081 10.6058 158.436 8.93962C153.894 4.32524 142.232 0.770001 135.077 0.150621C126.881 -0.555471 113.64 1.22833 107.03 5.34721C104.585 6.86469 102.91 9.0635 101.207 11.1446C98.0771 15.0157 94.5248 18.8807 89.5095 21.0547C87.6169 21.8723 85.4477 22.4916 84.1884 23.9162C83.4393 24.8819 82.9542 25.9783 82.769 27.1246C81.8046 31.1575 81.3024 35.2605 81.2695 39.3759V39.3759C81.2695 39.89 81.2695 40.4041 81.2695 40.9244C81.2844 42.4674 81.6709 43.9915 82.405 45.4025C82.5215 45.6131 82.6525 45.8175 82.7908 46.0219L82.8782 46.1519C83.7586 47.2228 84.5375 48.3516 85.2075 49.5276C85.3744 49.8569 85.4942 50.2021 85.5642 50.5557C85.6889 51.4631 85.6199 52.3822 85.3604 53.2686V53.2686C85.3604 53.4049 85.2949 53.5411 85.2658 53.6774L85.2002 53.9438C85.2002 54.0367 85.2002 54.1296 85.142 54.2163C85.0838 54.4826 85.0328 54.7489 84.9891 55.0091C84.8788 55.7255 84.9332 56.4534 85.1493 57.1521C85.249 57.5415 85.4445 57.9084 85.7231 58.2287C86.0016 58.549 86.3568 58.8154 86.7653 59.0103C87.1799 59.1795 87.6213 59.2963 88.0755 59.3571C88.5341 59.4253 89 59.4686 89.4513 59.5553C90.0316 59.6679 90.5921 59.8449 91.1182 60.0818C91.6222 60.287 92.0942 60.5451 92.5231 60.8498C92.7353 61.0139 92.9369 61.1876 93.1272 61.3701C93.5116 61.7447 93.8575 62.1467 94.1609 62.5717C94.3162 62.7906 94.4618 63.0135 94.5976 63.2406C95.1192 64.1369 95.5361 65.0746 95.8424 66.0402C96.0316 66.6163 96.1918 67.1985 96.3301 67.7807C96.3956 68.0408 96.4538 68.301 96.5048 68.5549C96.5557 68.8089 96.6067 69.069 96.6503 69.3229C96.849 69.3133 97.045 69.28 97.2327 69.2238C98.3027 68.8956 98.8996 67.8364 99.2344 66.8083C99.2927 66.6348 99.3436 66.4676 99.3873 66.3004C99.5547 65.681 99.7294 64.9997 99.8969 64.3493C102.766 69.534 107.393 73.8697 113.181 76.7989C113.385 77.3129 113.582 77.8208 113.756 78.3411C114.71 81.1469 115.169 84.0828 113.516 86.5355C112.337 88.276 110.357 89.3475 108.144 90.0907C107.825 89.7289 107.415 89.4325 106.943 89.2236C105.029 88.406 102.728 89.397 101.12 90.6172C98.2081 92.8594 95.8351 96.074 92.0062 96.811C90.6232 97.0835 89.0946 97.0278 87.9445 97.7463C87.1838 98.3549 86.5468 99.0665 86.0592 99.8522C85.2284 100.867 84.1111 101.689 82.8099 102.241C81.5088 102.793 80.0655 103.058 78.6126 103.011C77.2805 102.955 75.7009 102.695 74.7911 103.525C74.1141 104.144 74.0631 105.123 73.3352 105.711C72.3598 106.529 70.7584 106.133 69.3972 106.083C66.8058 105.99 64.3964 107.415 62.9188 109.242C61.4411 111.069 60.735 113.256 60.0071 115.436V115.473C59.8203 115.589 59.6428 115.715 59.4757 115.851C58.77 116.49 58.2229 117.245 57.867 118.068C51.9803 129.472 48.5058 141.671 47.6034 154.104C47.6178 154.709 47.4579 155.309 47.1376 155.85C46.8119 156.204 46.4541 156.535 46.0675 156.841C45.7216 157.202 45.4643 157.617 45.3108 158.064C45.1573 158.51 45.1107 158.979 45.1738 159.441C45.237 159.903 45.4085 160.349 45.6783 160.754C45.9481 161.159 46.3107 161.513 46.7445 161.796C46.9539 161.473 47.2162 161.177 47.5233 160.917C47.4433 161.202 47.3705 161.48 47.3195 161.734C47.0272 163.541 47.0003 165.372 47.2395 167.185C47.9286 175.79 48.6249 184.389 49.3286 192.982C49.5251 195.416 49.7217 197.844 49.9837 200.272C50.4932 204.971 51.2212 209.652 52.1674 214.314C52.2111 214.524 52.2621 214.741 52.3276 214.933C46.3951 216.537 41.1177 219.436 38.8976 224.273C38.126 225.946 37.7766 227.766 36.8303 229.371C35.7894 231.13 34.0788 232.536 32.9432 234.258C30.9851 237.218 30.8978 240.848 31.6111 244.168C32.9869 250.64 37.0996 256.425 42.5299 261.132C42.2896 261.132 42.0422 261.132 41.8019 261.132C40.0278 261.3 38.3248 261.819 36.8303 262.65C25.3438 268.361 18.778 280.612 21.1728 291.798C21.646 293.984 22.4685 296.202 24.1864 297.868C25.6143 299.192 27.4503 300.149 29.4856 300.63C30.7585 300.956 32.0691 301.164 33.3945 301.25C42.3479 301.869 51.0173 298.339 59.9925 298.041C62.9658 298.001 65.939 298.119 68.8949 298.394C73.2187 298.7 77.5498 298.894 81.8882 298.977C88.9417 299.119 92.9089 297.521 97.4074 293.037C98.5131 291.921 99.4362 290.684 100.152 289.358C103.98 289.172 108.21 288.887 111.267 288.676L111.311 289.036C111.478 290.274 111.733 291.699 112.897 292.479C113.553 292.864 114.297 293.124 115.081 293.241C122.433 294.777 129.872 296.338 137.443 296.338C140.995 296.277 144.541 296.045 148.063 295.644L161.362 294.337C165.237 294.755 169.062 295.464 172.79 296.456C176.634 297.564 180.222 299.212 183.978 300.519C192.713 303.529 202.103 304.607 211.406 305.66C212.993 305.839 214.813 305.963 215.985 305.04C217.499 303.802 216.997 301.733 216.567 299.999C216.392 299.286 216.261 298.574 216.159 297.855C222.437 299.264 228.579 301.078 234.532 303.281L235.573 303.671C235.879 305.022 237.342 306.099 238.747 307.555C239.208 308.169 239.747 308.738 240.355 309.252C241.05 309.636 241.84 309.878 242.663 309.958C252.483 311.515 262.511 311.901 272.456 311.104C274.492 310.868 276.55 310.808 278.6 310.924C280.106 311.099 281.591 311.383 283.04 311.773L291.462 313.829C297.671 315.341 304.026 316.87 310.468 316.53C311.774 316.46 313.072 316.3 314.348 316.053C319.443 315.049 324.189 312.628 326.635 308.732C330.093 303.436 328.499 296.92 326.635 291.098Z" fill="url(#paint0_linear)"/>
<path d="M91.0018 289.891C89.4659 286.918 88.01 283.499 89.5459 280.526C90.5485 278.775 92.2707 277.398 94.3866 276.655C96.4803 275.928 98.6872 275.465 100.938 275.28C108.002 274.491 115.15 274.408 122.237 275.032C122.753 278.513 121.662 282.043 120.723 285.407C119.871 288.504 119.383 288.962 115.627 289.123C113.196 289.234 91.5768 290.987 91.0018 289.891Z" fill="#FBBEBE"/>
<path d="M155.823 269.836C213.311 269.836 259.915 258.743 259.915 245.06C259.915 231.377 213.311 220.285 155.823 220.285C98.3342 220.285 51.7307 231.377 51.7307 245.06C51.7307 258.743 98.3342 269.836 155.823 269.836Z" fill="#464353"/>
<path opacity="0.1" d="M155.823 269.836C213.311 269.836 259.915 258.743 259.915 245.06C259.915 231.377 213.311 220.285 155.823 220.285C98.3342 220.285 51.7307 231.377 51.7307 245.06C51.7307 258.743 98.3342 269.836 155.823 269.836Z" fill="black"/>
<path d="M174.486 114.273C170.918 120.139 164.992 124.72 157.788 127.181C153.535 128.499 149.058 129.223 144.533 129.324C139.59 129.516 134.546 129.243 129.902 127.806C123.671 125.886 118.495 121.959 114.615 117.382C110.736 112.805 108.064 107.577 105.742 102.306C104.519 99.5624 103.354 96.639 103.929 93.7403C107.678 93.0156 111.784 91.9503 113.72 89.1197C115.372 86.6917 114.914 83.7807 113.96 81.0058C113.691 80.2192 113.378 79.4388 113.065 78.6893C112.337 76.8931 109.826 73.4804 111.609 71.9443C112.723 70.9719 117.389 70.4764 118.997 69.8446C123.954 67.8997 128.526 65.0878 133.971 64.1649C138.68 63.3659 143.543 64.1153 148.245 64.9453C148.869 65.0225 149.468 65.2057 150.007 65.4841C150.621 65.9246 151.075 66.5046 151.317 67.1565C152.656 69.9313 153.442 72.9972 154.52 75.8897C155.641 78.9185 157.082 81.7615 159.782 83.9107C161.886 85.5892 164.565 86.6422 167.185 87.6642L173.635 90.1788C174.782 90.5443 175.822 91.117 176.685 91.8574C177.528 92.8438 178.032 94.0104 178.14 95.2268C179.296 101.744 178.018 108.406 174.486 114.273V114.273Z" fill="#FBBEBE"/>
<path opacity="0.1" d="M154.491 75.8897C149.355 80.4395 142.59 83.4103 135.256 84.3362C127.922 85.2621 120.435 84.0907 113.967 81.0058C113.698 80.2192 113.385 79.4388 113.072 78.6893C112.344 76.8931 109.833 73.4803 111.616 71.9443C112.73 70.9719 117.396 70.4763 119.005 69.8446C123.962 67.8997 128.533 65.0878 133.978 64.1649C138.687 63.3659 143.55 64.1153 148.252 64.9453C148.876 65.0225 149.475 65.2057 150.014 65.4841C150.628 65.9246 151.082 66.5046 151.324 67.1565C152.627 69.9313 153.413 72.9972 154.491 75.8897Z" fill="black"/>
<path d="M130.346 83.4C148.838 83.4 163.83 70.6439 163.83 54.9085C163.83 39.1731 148.838 26.417 130.346 26.417C111.853 26.417 96.8615 39.1731 96.8615 54.9085C96.8615 70.6439 111.853 83.4 130.346 83.4Z" fill="#FBBEBE"/>
<path d="M232.363 147.378L229.611 133.194C228.221 126.078 226.787 118.825 222.9 112.414C220.345 108.215 216.29 104.213 210.824 103.384C209.747 103.302 208.689 103.093 207.679 102.764C206.078 102.108 205.204 100.633 203.974 99.5434C200.8 96.7438 195.632 96.7004 191.381 95.2758C187.625 94.0371 184.553 91.6525 181.132 89.8315C177.711 88.0105 173.453 86.7346 169.668 87.899C169.056 93.4425 168.408 99.1098 165.642 104.158C163.842 107.444 161.201 110.346 157.913 112.652C154.625 114.959 150.772 116.61 146.638 117.486C142.503 118.363 138.19 118.442 134.015 117.717C129.84 116.993 125.907 115.484 122.506 113.3C116.02 109.144 111.864 102.733 109.928 96.0253C109.454 94.3901 108.916 92.5134 107.147 91.764C105.232 90.9464 102.932 91.9374 101.324 93.139C98.4119 95.3626 96.0316 98.5462 92.2028 99.2956C90.8197 99.5682 89.2911 99.5124 88.141 100.225C87.3766 100.825 86.7368 101.531 86.2484 102.312C85.4106 103.319 84.2911 104.133 82.9911 104.681C81.691 105.228 80.2513 105.491 78.8019 105.446C77.4698 105.39 75.8902 105.13 74.9803 105.954C74.3033 106.573 74.2524 107.54 73.5245 108.116C72.5418 108.927 70.9477 108.531 69.5792 108.487C66.9878 108.394 64.5784 109.807 63.0935 111.584C61.6085 113.362 60.9097 115.561 60.1818 117.691C68.1379 132.767 75.417 147.861 83.3732 162.937C83.7459 163.505 83.9437 164.144 83.9482 164.795C83.7887 165.47 83.4501 166.106 82.9583 166.653C79.0566 171.986 79.1804 178.694 79.6098 184.962C80.0393 191.23 80.5634 197.851 77.2732 203.469C76.3779 205.011 75.2132 206.424 74.3616 207.966C72.3671 211.459 71.6465 222.633 72.8111 226.386H237.378C234.241 219.047 235.435 204.318 236.09 196.526C236.548 191.075 235.362 185.631 234.852 180.18C233.739 169.05 234.525 158.49 232.363 147.378Z" fill="#E60B0B"/>
<path d="M47.5743 163.605C47.2831 165.397 47.2538 167.213 47.487 169.012L49.5761 194.574C49.7726 196.983 49.9691 199.386 50.2312 201.789C50.7335 206.453 51.4832 211.08 52.4149 215.701C52.4359 216.357 52.7619 216.979 53.3215 217.431C53.881 217.882 54.6283 218.127 55.3994 218.11C64.6075 219.77 74.1214 219.702 83.5188 219.25C97.8587 218.568 112.177 217.014 126.539 217.28C130.236 217.348 134.546 217.28 136.788 214.802C139.03 212.325 137.727 208.318 134.8 206.317C131.874 204.316 127.9 203.839 124.144 203.839C119.172 203.796 114.2 204.397 109.243 204.149C104.694 203.92 100.246 202.985 95.8351 202.049L83.4605 199.429C83.9337 196.24 85.3604 193.236 86.7143 190.207C89.1456 184.837 91.4166 179.287 91.4603 173.533C91.504 167.779 88.9563 161.728 83.4169 158.433C78.8601 155.726 72.9931 155.224 67.4391 155.336C63.3992 155.435 56.4185 154.611 52.728 155.955C49.809 157.045 48.1202 161.17 47.5743 163.605Z" fill="#FBBEBE"/>
<path d="M240.785 222.051C243.209 221.265 245.88 221.55 248.479 221.847C256.843 222.819 265.33 223.816 273.082 226.659C276.722 227.985 280.187 229.756 282.647 232.364C284.831 234.711 286.105 237.585 287.313 240.416L290.108 246.932C291.171 249.409 292.248 251.936 292.547 254.569C293.42 262.367 287.153 269.719 279.27 273.769C271.386 277.82 262.105 279.263 253.065 280.775C244.024 282.286 234.947 283.958 225.943 285.73C221.743 286.657 217.482 287.371 213.182 287.867C203.545 288.796 193.47 287.427 184.313 290.14C180.674 291.224 177.1 292.834 173.322 293.583C170.812 294.033 168.275 294.361 165.722 294.568L148.391 296.253C144.866 296.654 141.318 296.886 137.763 296.947C130.193 296.947 122.746 295.423 115.394 293.899C114.613 293.783 113.869 293.527 113.21 293.15C112.046 292.369 111.791 290.988 111.624 289.737C110.881 284.2 110.231 278.656 109.673 273.107C109.498 271.304 109.367 269.353 110.524 267.836C111.98 265.978 114.819 265.395 117.411 265.036C128.399 263.507 139.53 262.849 150.662 263.073C154.891 259.474 161.864 259.456 167.404 257.498C169.442 256.702 171.414 255.789 173.307 254.767C183.216 249.848 194.289 246.871 205.721 246.052C207.96 245.994 210.184 245.724 212.352 245.247C216.64 244.114 220.549 241.029 224.953 241.785C225.499 240.503 225.877 238.787 227.136 237.907C227.762 237.455 228.534 237.152 229.109 236.669C230.325 235.622 230.434 233.974 230.252 232.513C230.07 231.051 229.662 229.552 230.106 228.127C230.291 227.588 230.563 227.073 230.914 226.597C233.098 223.389 236.396 221.742 240.785 222.051Z" fill="#464353"/>
<path opacity="0.05" d="M240.785 222.051C243.209 221.265 245.88 221.55 248.479 221.847C256.843 222.819 265.33 223.816 273.082 226.659C276.722 227.985 280.187 229.756 282.647 232.364C284.831 234.711 286.105 237.585 287.313 240.416L290.108 246.932C291.171 249.409 292.248 251.936 292.547 254.569C293.42 262.367 287.153 269.719 279.27 273.769C271.386 277.82 262.105 279.263 253.065 280.775C244.024 282.286 234.947 283.958 225.943 285.73C221.743 286.657 217.482 287.371 213.182 287.867C203.545 288.796 193.47 287.427 184.313 290.14C180.674 291.224 177.1 292.834 173.322 293.583C170.812 294.033 168.275 294.361 165.722 294.568L148.391 296.253C144.866 296.654 141.318 296.886 137.763 296.947C130.193 296.947 122.746 295.423 115.394 293.899C114.613 293.783 113.869 293.527 113.21 293.15C112.046 292.369 111.791 290.988 111.624 289.737C110.881 284.2 110.231 278.656 109.673 273.107C109.498 271.304 109.367 269.353 110.524 267.836C111.98 265.978 114.819 265.395 117.411 265.036C128.399 263.507 139.53 262.849 150.662 263.073C154.891 259.474 161.864 259.456 167.404 257.498C169.442 256.702 171.414 255.789 173.307 254.767C183.216 249.848 194.289 246.871 205.721 246.052C207.96 245.994 210.184 245.724 212.352 245.247C216.64 244.114 220.549 241.029 224.953 241.785C225.499 240.503 225.877 238.787 227.136 237.907C227.762 237.455 228.534 237.152 229.109 236.669C230.325 235.622 230.434 233.974 230.252 232.513C230.07 231.051 229.662 229.552 230.106 228.127C230.291 227.588 230.563 227.073 230.914 226.597C233.098 223.389 236.396 221.742 240.785 222.051Z" fill="black"/>
<path d="M97.6986 293.719C93.1928 298.16 89.2256 299.746 82.1721 299.603C77.8338 299.517 73.5002 299.325 69.1716 299.027C66.2129 298.755 63.2375 298.637 60.2619 298.674C51.2794 298.972 42.6099 302.471 33.6493 301.858C32.3243 301.769 31.0141 301.562 29.7404 301.239C27.7076 300.762 25.8704 299.814 24.4339 298.501C22.716 296.847 21.8935 294.655 21.4203 292.487C19.0255 281.375 25.5913 269.272 37.0851 263.617C38.5847 262.793 40.2895 262.278 42.064 262.112C43.8041 262.106 45.5243 262.428 47.1012 263.054L47.2104 263.091C51.88 264.726 56.1211 267.135 59.6868 270.177C60.2278 270.704 60.8733 271.146 61.594 271.484C62.3131 271.715 63.0745 271.836 63.8432 271.843L73.408 272.357C75.0285 272.398 76.6392 272.587 78.2123 272.921C79.9465 273.436 81.6348 274.057 83.264 274.779C88.4104 276.736 94.1172 277.256 99.6785 278.012C100.214 278.037 100.726 278.211 101.134 278.507C101.356 278.742 101.511 279.018 101.586 279.313C102.367 281.802 102.422 284.416 101.744 286.927C101.067 289.438 99.6778 291.77 97.6986 293.719V293.719Z" fill="#3F3D56"/>
<path opacity="0.1" d="M47.2104 263.095C43.4994 266.11 40.2801 269.535 37.6383 273.278C33.3989 279.454 30.7352 286.322 29.8205 293.432C29.4736 296.026 29.4467 298.644 29.7404 301.242C27.7076 300.766 25.8704 299.818 24.4339 298.505C22.716 296.851 21.8935 294.659 21.4203 292.491C19.0255 281.379 25.5913 269.276 37.0851 263.621C38.5847 262.797 40.2895 262.282 42.064 262.116C43.8041 262.11 45.5243 262.432 47.1012 263.058L47.2104 263.095Z" fill="black"/>
<path d="M232.458 278.508C237.808 278.384 243.813 278.155 247.744 281.22C251.492 284.119 251.987 288.901 252.235 293.205L252.519 298.204C252.606 299.728 252.679 301.301 251.958 302.713C250.677 305.19 247.161 306.386 243.951 306.243C240.741 306.101 237.793 304.906 234.86 303.828C226.896 300.908 218.603 298.686 210.111 297.194C210.387 293.738 210.848 290.299 211.494 286.875C211.938 284.503 212.01 280.533 213.874 278.563C215.846 276.482 218.416 277.609 221.095 277.993C224.853 278.482 228.659 278.654 232.458 278.508V278.508Z" fill="#FBBEBE"/>
<path d="M91.0673 228.281C91.0673 228.9 89.9244 228.281 89.8225 227.618C89.0218 222.607 84.3486 218.476 78.9038 216.469C73.459 214.462 67.2572 214.357 61.3611 214.834C52.4441 215.553 42.4353 218.457 39.1742 225.549C38.4026 227.209 38.0532 229.006 37.1069 230.597C36.0587 232.344 34.3481 233.738 33.2126 235.435C31.2545 238.371 31.1744 241.969 31.8805 245.289C33.7803 254.146 40.8994 261.721 49.5251 266.967C58.1509 272.213 68.2326 275.348 78.2851 278.172C104.866 285.631 132.138 291.174 159.812 294.74C164.296 295.316 168.823 295.849 173.118 297.075C176.961 298.172 180.557 299.813 184.313 301.101C193.048 304.087 202.446 305.152 211.756 306.199C213.342 306.372 215.162 306.496 216.334 305.579C217.848 304.384 217.346 302.303 216.917 300.587C215.336 294.064 216.662 287.273 220.636 281.535C222.194 279.305 224.218 277.02 223.926 274.437C223.577 271.427 220.054 269.296 216.545 268.813C213.037 268.33 209.47 269.042 205.947 269.432C204.731 269.569 203.406 269.655 202.344 269.129C201.82 268.828 201.345 268.47 200.932 268.064C198.504 266.071 195.398 264.784 192.058 264.387C188.719 263.99 185.317 264.503 182.341 265.852C181.038 266.472 179.065 265.091 177.711 264.57L162.403 258.674C144.817 251.904 127.143 245.103 108.537 240.817C107.053 240.569 105.642 240.07 104.388 239.349C103.464 238.73 102.801 237.887 101.95 237.2C100.093 235.707 97.5093 235.113 95.2819 234.053C93.0545 232.994 90.5577 230.405 91.0673 228.281Z" fill="#464353"/>
<path d="M327.065 309.227C324.619 313.086 319.873 315.489 314.777 316.48C313.499 316.726 312.199 316.883 310.89 316.951C304.448 317.292 298.086 315.774 291.877 314.275L283.448 312.256C281.999 311.868 280.513 311.586 279.008 311.414C276.958 311.297 274.9 311.357 272.864 311.593C262.902 312.382 252.859 311.999 243.019 310.454C242.196 310.378 241.406 310.138 240.712 309.754C240.104 309.247 239.565 308.684 239.103 308.075C236.81 305.728 234.343 304.359 237.058 301.262C238.623 299.466 241.527 298.568 242.743 296.505C243.958 294.443 243.18 291.513 242.459 289.382C241.476 286.44 238.244 285.171 237.087 282.47C236.221 280.432 237.677 278.066 239.868 276.958C242.059 275.849 244.766 275.762 247.292 276.047C249.818 276.332 252.293 276.939 254.834 277.106C262.302 277.614 269.938 274.338 277.108 276.183C278.687 276.592 280.18 277.243 281.781 277.602C284.903 278.196 288.164 277.956 291.12 276.914C292.168 276.58 293.195 276.177 294.214 275.781C296.179 274.91 298.272 274.267 300.437 273.867C307.433 272.845 313.918 276.964 319.196 280.984C321.007 282.263 322.611 283.742 323.964 285.381C325.42 287.314 326.191 289.562 326.875 291.779C328.804 297.509 330.398 303.963 327.065 309.227Z" fill="#3F3D56"/>
<path opacity="0.1" d="M327.065 309.227C324.619 313.086 319.873 315.489 314.778 316.48C316.76 313.204 317.653 309.529 317.362 305.852C316.925 299.961 313.882 294.412 310.002 289.519C307.616 286.507 304.901 283.692 301.893 281.114C299.579 279.132 296.733 277.558 294.243 275.744C296.208 274.873 298.301 274.229 300.467 273.83C307.462 272.808 313.948 276.927 319.225 280.946C321.037 282.226 322.64 283.705 323.993 285.344C325.449 287.277 326.22 289.525 326.905 291.742C328.804 297.509 330.399 303.963 327.065 309.227Z" fill="black"/>
<path d="M59.7669 118.15C59.0578 118.782 58.5079 119.53 58.1509 120.349C52.2669 131.632 48.7914 143.717 47.8873 156.038C47.9031 156.638 47.7404 157.233 47.4142 157.766C47.0925 158.12 46.7344 158.45 46.3441 158.751C45.9898 159.108 45.7253 159.523 45.5672 159.971C45.409 160.419 45.3605 160.89 45.4246 161.354C45.4887 161.819 45.6642 162.267 45.94 162.671C46.2159 163.076 46.5863 163.428 47.0284 163.706C48.2294 161.779 51.1047 161.154 53.6597 160.987C65.8959 160.163 77.8483 165.006 90.121 164.641C89.2547 162.095 88.01 159.649 87.3039 157.072C84.1812 145.632 91.9699 133.176 87.1947 122.158C86.2412 119.953 84.647 117.785 82.1357 116.819C81.0959 116.461 80.0078 116.216 78.8965 116.088C75.7956 115.611 69.6229 113.573 66.6239 114.391C65.5174 114.694 65.0807 115.58 64.1635 116.112C62.7732 116.874 60.9243 117.153 59.7669 118.15Z" fill="#E50B0B"/>
<path d="M242.102 140.695H91.3803C88.1762 140.695 85.5788 142.905 85.5788 145.632V223.711C85.5788 226.437 88.1762 228.647 91.3803 228.647H242.102C245.306 228.647 247.904 226.437 247.904 223.711V145.632C247.904 142.905 245.306 140.695 242.102 140.695Z" fill="#3F3D56"/>
<path d="M166.377 188.386C168.789 188.386 170.745 186.722 170.745 184.669C170.745 182.617 168.789 180.953 166.377 180.953C163.965 180.953 162.01 182.617 162.01 184.669C162.01 186.722 163.965 188.386 166.377 188.386Z" fill="white"/>
<path d="M107.212 8.66617C104.767 10.1713 103.092 12.3329 101.389 14.4078C98.2518 18.2418 94.6996 22.0695 89.6842 24.2064C87.7844 25.0178 85.6152 25.631 84.3559 27.0431C83.6084 27.9982 83.1233 29.0842 82.9365 30.2206C81.9757 34.2163 81.4735 38.282 81.437 42.3604C81.437 44.392 81.5389 46.4855 82.5943 48.3312C83.5916 50.0655 85.3895 51.5334 85.7608 53.4225C86.0447 54.8966 85.4041 56.3646 85.1784 57.8449C84.9528 59.3252 85.3459 61.078 86.9545 61.7841C87.8213 62.0616 88.7266 62.2427 89.6478 62.323C94.4885 63.2397 96.1117 68.0708 96.8469 72.0658C98.492 71.9853 99.2345 70.3811 99.5766 69.0742L104.621 49.9912C105.167 47.9224 106.077 45.5254 108.501 44.8008C110.124 44.3238 111.9 44.7698 113.596 44.8937C120.257 45.3582 125.891 40.9792 132.406 39.7714C134.491 39.4133 136.623 39.2925 138.746 39.4122C143.885 39.6289 149.861 41.4251 150.953 45.5068C151.135 46.1696 151.244 46.9624 151.972 47.2907C152.7 47.6189 153.464 47.3402 154.228 47.2907C157.49 47.0119 159.411 50.1336 160.35 52.6855L163.771 61.9762C164.281 63.3822 165.14 65.0359 166.931 65.2155C168.583 65.3889 169.988 64.0573 170.235 62.738C170.483 61.4187 169.944 60.0499 169.587 58.7244C167.979 52.6235 170.439 46.3802 171.939 40.2669C173.438 34.1536 173.707 27.1299 168.678 22.4226C166.851 20.7193 164.448 19.4496 162.745 17.6534C161.158 15.9686 160.263 13.8999 158.618 12.2462C154.068 7.68136 142.4 4.15709 135.244 3.57487C127.07 2.81923 113.822 4.58446 107.212 8.66617Z" fill="#3F3D56"/>
<g opacity="0.1">
<path opacity="0.1" d="M166.96 60.8801C165.169 60.6943 164.31 59.022 163.801 57.6408C162.66 54.5397 161.52 51.4428 160.379 48.3501C159.44 45.792 157.519 42.6703 154.258 42.9552C153.493 43.0234 152.671 43.2773 152.001 42.9552C151.331 42.6332 151.164 41.8342 150.982 41.1714C149.89 37.0835 143.914 35.2935 138.775 35.0767C136.652 34.9581 134.521 35.0768 132.435 35.4298C125.92 36.6685 120.286 41.0042 113.625 40.552C111.907 40.4344 110.131 39.9884 108.53 40.4653C106.077 41.1838 105.196 43.5622 104.65 45.6557L99.6057 64.7326C99.2636 66.0457 98.5211 67.6499 96.876 67.7243C96.1481 63.7354 94.5176 58.9043 89.6769 57.9876C88.7569 57.9013 87.8525 57.7204 86.9836 57.4487C86.3504 57.1544 85.8546 56.6844 85.5788 56.1171C85.4477 56.6931 85.2949 57.2691 85.2075 57.8451C84.9892 59.3193 85.3749 61.0783 86.9836 61.7844C87.8504 62.0618 88.7557 62.243 89.6769 62.3233C94.5176 63.2399 96.1408 68.0711 96.876 72.0661C98.5211 71.9856 99.2636 70.3814 99.6057 69.0745L104.65 49.9914C105.196 47.9227 106.106 45.5257 108.53 44.801C110.153 44.3241 111.929 44.77 113.625 44.8939C120.286 45.3584 125.92 40.9794 132.435 39.7716C134.52 39.4135 136.652 39.2927 138.775 39.4124C143.914 39.6292 149.89 41.4254 150.982 45.5071C151.164 46.1698 151.273 46.9626 152.001 47.2909C152.729 47.6192 153.493 47.3405 154.258 47.2909C157.519 47.0122 159.44 50.1339 160.379 52.6857C161.515 55.7867 162.655 58.8836 163.801 61.9764C164.31 63.3824 165.169 65.0361 166.96 65.2158C168.612 65.3892 170.017 64.0575 170.264 62.7382C170.376 61.6281 170.228 60.5102 169.828 59.4493C169.568 59.9014 169.157 60.2783 168.647 60.5328C168.137 60.7872 167.55 60.9081 166.96 60.8801V60.8801Z" fill="black"/>
<path opacity="0.1" d="M85.768 49.0878C85.3968 47.1987 83.5843 45.7308 82.6016 43.9966C81.9698 42.8268 81.6043 41.5658 81.5243 40.2803C81.5243 40.974 81.4515 41.6677 81.4442 42.3676C81.4442 44.3992 81.5461 46.4926 82.6016 48.3384C83.4096 49.7444 84.7417 50.9832 85.4114 52.4139C85.7644 51.3325 85.8853 50.2058 85.768 49.0878V49.0878Z" fill="black"/>
<path opacity="0.1" d="M171.968 35.9074C170.643 41.3083 168.576 46.8084 169.216 52.2218C169.631 48.2268 171 44.207 171.968 40.243C172.775 37.2328 173.06 34.1381 172.812 31.0576C172.654 32.688 172.372 34.308 171.968 35.9074Z" fill="black"/>
</g>
<g opacity="0.1">
<path opacity="0.1" d="M62.8534 72.9961C62.8534 72.9961 8.42719 53.5228 1.29362 88.6602C1.29362 88.6602 -2.42603 94.1355 2.74945 98.657C2.74945 98.657 3.86316 96.229 9.11871 98.7375C10.9958 99.6209 12.9898 100.311 15.0585 100.794C17.8523 101.45 20.8209 101.315 23.5169 100.41V100.41C23.5169 100.41 41.4163 99.5861 56.4696 79.6606C56.4696 79.6606 62.9262 76.2664 63.2465 74.9905L52.4588 75.6099C52.4588 75.6099 53.2886 82.3302 48.8192 86.3623C48.8192 86.3623 52.7791 75.932 50.8792 75.6408C50.4934 75.5789 45.1796 76.1735 45.1796 76.1735C45.1796 76.1735 46.5554 87.8612 39.3563 93.9064C39.3563 93.9064 46.0386 82.0205 43.1342 76.3841L35.1708 77.691C35.1708 77.691 37.3545 89.9857 29.4785 97.1333C29.4785 97.1333 35.9569 84.498 33.4529 78.0812L25.8316 80.2614C25.8316 80.2614 27.666 92.2836 21.0784 98.2234C21.0784 98.2234 26.8289 82.9805 24.121 80.8808C24.121 80.8808 17.2641 83.2468 15.801 84.5971C15.801 84.5971 16.8856 93.2684 12.7 96.3963C12.7 96.3963 15.2696 85.8668 13.9957 85.4332C13.9957 85.4332 6.03235 90.5369 3.60111 94.9407C3.60111 94.9407 6.62924 88.2143 12.9985 84.4113C12.9985 84.4113 7.64832 83.6432 3.5356 85.5447C3.5356 85.5447 6.28712 81.079 14.9275 83.1973C14.9275 83.1973 21.3258 79.4253 22.607 79.481C22.607 79.481 14.4325 76.3841 8.5291 76.7681C8.5291 76.7681 14.862 73.6712 24.6015 78.843L32.2082 76.508C32.2082 76.508 21.6534 71.906 16.3687 71.9246C16.3687 71.9246 23.4004 69.6081 34.1808 76.0496L41.9695 74.6994C41.9695 74.6994 33.2345 70.1469 27.3457 69.0878C27.3457 69.0878 34.4065 68.134 44.2188 74.3835L49.5398 74.0057C49.5398 74.0057 43.0978 70.7725 41.147 69.9859C39.1962 69.1993 39.2835 68.6914 39.2835 68.6914C43.9129 69.3661 48.2318 71.1199 51.76 73.7579C51.76 73.7579 62.8097 73.5721 62.8534 72.9961Z" fill="#17A2B8"/>
</g>
<g opacity="0.1">
<path opacity="0.1" d="M60.8442 38.0885C60.8442 38.0885 41.569 0.13909 13.7991 17.5437C13.7991 17.5437 7.93206 18.993 7.97574 24.171C7.97574 24.171 10.2614 23.2667 11.7099 27.3113C12.2411 28.746 12.9743 30.1206 13.8937 31.4054C15.1088 33.1515 16.9623 34.5112 19.1711 35.2765C19.1711 35.2765 30.3591 43.4647 52.6552 38.9247C52.6552 38.9247 58.7697 40.0333 59.8106 39.4387L52.9973 34.5642C52.9973 34.5642 48.9865 38.9618 43.6145 39.1724C43.6145 39.1724 52.9536 34.8987 52.0219 33.8024C51.8326 33.5794 48.2731 31.362 48.2731 31.362C48.2731 31.362 41.2706 38.968 32.9869 39.0857C32.9869 39.0857 44.9174 35.2579 46.9629 30.5073L41.3579 27.4104C41.3579 27.4104 34.2899 35.7782 24.827 36.2118C24.827 36.2118 37.136 31.8451 39.9458 26.8158L33.955 24.4188C33.955 24.4188 26.9962 32.4707 19.1274 32.7742C19.1274 32.7742 32.754 26.5061 32.5429 23.948C32.5429 23.948 26.887 22.028 25.089 22.1395C25.089 22.1395 19.9427 27.8068 15.3495 27.6457C15.3495 27.6457 23.9316 22.635 23.4658 21.7616C23.4658 21.7616 15.3131 20.9317 10.9238 22.381C10.9238 22.381 17.2275 19.854 23.5531 20.6839C23.5531 20.6839 20.889 17.6304 17.1839 16.7818C17.1839 16.7818 21.8134 15.4626 25.5258 20.9007C25.5258 20.9007 31.8441 21.7678 32.5866 22.412C32.5866 22.412 29.8132 16.596 26.0353 13.976C26.0353 13.976 31.8586 15.2148 34.188 23.0004L40.2733 25.2983C40.2733 25.2983 37.0851 17.4446 33.9259 14.8989C33.9259 14.8989 39.6546 16.9305 41.751 25.9858L47.2832 28.9526C47.2832 28.9526 45.1431 22.0156 42.3552 18.5285C42.3552 18.5285 47.1885 21.39 48.8263 29.8569L52.2475 32.2106C52.2475 32.2106 50.5806 27.1688 49.9473 25.7566C49.314 24.3445 49.7071 24.0843 49.7071 24.0843C52.0065 26.7402 53.3904 29.8888 53.7034 33.1768C53.7034 33.1768 60.4293 38.4044 60.8442 38.0885Z" fill="#17A2B8"/>
</g>
<defs>
<linearGradient id="paint0_linear" x1="174.748" y1="316.598" x2="174.748" y2="-0.0290069" gradientUnits="userSpaceOnUse">
<stop stop-color="#808080" stop-opacity="0.25"/>
<stop offset="0.54" stop-color="#808080" stop-opacity="0.12"/>
<stop offset="1" stop-color="#808080" stop-opacity="0.1"/>
</linearGradient>
</defs>
</svg>
