<svg width="888" height="389" viewBox="0 0 888 389" fill="none" xmlns="http://www.w3.org/2000/svg">
<g clip-path="url(#clip0)">
<path d="M194.91 217.014C194.918 215.82 194.686 214.637 194.227 213.539C193.768 212.441 193.093 211.452 192.243 210.633C191.394 209.814 190.388 209.183 189.289 208.779C188.191 208.376 187.023 208.208 185.858 208.286C184.693 208.365 183.556 208.689 182.519 209.237C181.482 209.785 180.566 210.546 179.829 211.472C179.093 212.398 178.55 213.469 178.237 214.62C177.923 215.77 177.844 216.973 178.006 218.156L153.605 250.836C152.563 252.966 152.16 255.363 152.444 257.726C152.729 260.089 153.688 262.314 155.204 264.122L157.118 266.406L165.9 264.609L175.854 255.627L174.683 245.447L186.979 225.686L186.963 225.672C189.116 225.531 191.135 224.558 192.611 222.95C194.087 221.342 194.909 219.22 194.91 217.014V217.014Z" fill="#FFB9B9"/>
<path d="M26.1666 376.784L22.1833 361.654L77.3473 338.744L83.2259 361.073L26.1666 376.784Z" fill="#FFB8B8"/>
<path d="M12.8425 384.591L0 335.809L0.603311 335.642C5.52721 334.287 10.776 334.987 15.1952 337.589C19.6144 340.191 22.842 344.481 24.1681 349.517L24.1684 349.518L32.0121 379.313L12.8425 384.591Z" fill="#2F2E41"/>
<path d="M102.152 374.366L89.7629 365.152L118.621 311.891L136.907 325.491L102.152 374.366Z" fill="#FFB8B8"/>
<path d="M96.5786 389L56.6279 359.287L56.9954 358.77C59.9946 354.552 64.5091 351.726 69.5459 350.912C74.5826 350.099 79.7291 351.364 83.8534 354.431L83.8544 354.432L108.255 372.58L96.5786 389Z" fill="#2F2E41"/>
<path d="M207.472 299.94L176.294 268.964C173.573 266.26 169.989 264.653 166.201 264.436C162.414 264.22 158.677 265.409 155.678 267.786L96.8086 334.671L102.078 343.055L158.288 304.131L196.347 355.031L232.65 336.468L207.472 299.94Z" fill="#2F2E41"/>
<path d="M194.005 306.526L171.17 304.73L154.633 300.63C153.698 299.139 152.341 297.976 150.743 297.297C149.145 296.617 147.382 296.452 145.69 296.826C143.998 297.199 142.458 298.092 141.276 299.385C140.093 300.678 139.326 302.31 139.075 304.061C138.825 305.813 139.104 307.601 139.875 309.186C140.645 310.771 141.871 312.078 143.388 312.931C144.905 313.784 146.64 314.142 148.362 313.959C150.083 313.775 151.709 313.058 153.021 311.904L153.019 311.916L162.973 316.108L205.716 331.078L210.985 326.886L194.005 306.526Z" fill="#FFB9B9"/>
<path d="M249.044 371.2L236.163 379.583H220.939L150.091 352.636L46.4537 371.798L43.5261 349.043L138.381 306.527L221.525 334.671L249.044 371.2Z" fill="#2F2E41"/>
<path d="M221.525 225.686C234.137 225.686 244.36 215.23 244.36 202.332C244.36 189.434 234.137 178.978 221.525 178.978C208.913 178.978 198.689 189.434 198.689 202.332C198.689 215.23 208.913 225.686 221.525 225.686Z" fill="#FFB9B9"/>
<path d="M280.61 295.574C280.61 309.669 278.438 323.675 274.175 337.078L272.465 342.456L264.268 380.78L255.485 383.176L249.044 374.792L236.163 365.211L226.795 349.642L218.761 335.953L216.255 331.677L207.472 286.766L174.098 267.603L162.973 265.807L165.315 259.22L175.269 245.447L185.222 244.249L188.15 241.854L190.492 243.052L203.403 248.138L245.262 230.051L251.387 231.075L272.465 249.04C277.854 263.935 280.612 279.692 280.61 295.574V295.574Z" fill="#CCCCCC"/>
<path opacity="0.1" d="M274.222 290.359L251.972 305.329L218.762 335.952L216.256 331.677L209.229 295.748H210.986L229.137 261.616L274.222 290.359Z" fill="black"/>
<path d="M229.137 258.022L210.986 292.154L200.447 304.131L191.079 306.527L216.256 334.671L251.972 301.736L274.222 286.765L229.137 258.022Z" fill="#CCCCCC"/>
<path d="M203.764 184.967L201.29 185.941C200.914 185.681 200.592 185.348 200.343 184.96C200.093 184.573 199.92 184.139 199.834 183.684C199.749 183.228 199.751 182.76 199.843 182.306C199.934 181.851 200.112 181.42 200.366 181.035C200.379 181.015 200.393 180.995 200.407 180.975L195.834 180.757C198.77 176.759 202.501 173.444 206.783 171.032C211.064 168.619 215.797 167.164 220.67 166.762C225.542 166.36 230.443 167.022 235.046 168.702C239.65 170.382 243.853 173.042 247.376 176.508C247.584 175.775 249.854 177.201 250.78 178.648C251.091 177.455 253.219 183.222 253.972 187.299C254.32 185.942 255.66 188.133 254.486 190.236C255.23 190.125 255.565 192.07 254.99 193.154C255.803 192.764 255.666 195.086 254.784 196.638C255.945 196.533 254.685 220.985 237.265 219.204C236.052 213.505 236.394 213.859 234.965 206.531C234.301 205.809 233.573 205.152 232.846 204.496L228.915 200.947C224.345 196.821 220.187 191.729 214.098 190.187C209.914 189.127 207.268 188.888 209.549 184.066C207.488 184.945 205.564 186.253 203.486 187.069C203.514 186.395 203.804 185.641 203.764 184.967Z" fill="#2F2E41"/>
<path d="M232.943 209.218C235.207 209.218 237.042 207.342 237.042 205.027C237.042 202.712 235.207 200.835 232.943 200.835C230.679 200.835 228.844 202.712 228.844 205.027C228.844 207.342 230.679 209.218 232.943 209.218Z" fill="#FFB9B9"/>
<path d="M41.8074 106.026L40.5566 125.234L59.3381 126.514L60.5888 107.306L41.8074 106.026Z" fill="#E6E6E6"/>
<path d="M29.6895 116.226L52.4954 117.779L50.9766 141.103L28.1707 139.549L29.6895 116.226ZM51.4378 118.725L30.615 117.307L29.2283 138.603L50.0511 140.021L51.4378 118.725Z" fill="#CCCCCC"/>
<path d="M147.944 49.0692L129.541 53.1133L133.495 71.9342L151.898 67.8901L147.944 49.0692Z" fill="#E6E6E6"/>
<path d="M135.027 39.9531L139.829 62.8071L117.482 67.7177L112.681 44.8638L135.027 39.9531ZM138.649 62.0269L134.265 41.1603L113.861 45.6439L118.245 66.5106L138.649 62.0269Z" fill="#CCCCCC"/>
<path d="M128.607 139.454L114.869 152.614L127.737 166.664L141.475 153.504L128.607 139.454Z" fill="#E6E6E6"/>
<path d="M142.462 137.485L125.781 153.465L110.156 136.405L126.837 120.425L142.462 137.485ZM125.827 152.029L141.058 137.438L126.791 121.861L111.56 136.452L125.827 152.029Z" fill="#CCCCCC"/>
<path d="M839.042 0H282.121C280.108 -2.33965e-06 278.115 0.405491 276.255 1.19333C274.395 1.98117 272.706 3.13591 271.282 4.59165C269.859 6.04738 268.73 7.7756 267.959 9.67761C267.189 11.5796 266.792 13.6182 266.792 15.6769V333.03C266.792 335.089 267.189 337.127 267.959 339.029C268.73 340.931 269.859 342.659 271.282 344.115C272.706 345.571 274.395 346.726 276.255 347.514C278.115 348.301 280.108 348.707 282.121 348.707H839.042C843.108 348.707 847.006 347.055 849.881 344.115C852.756 341.175 854.371 337.188 854.371 333.03V15.6769C854.371 11.5191 852.756 7.53165 849.881 4.59166C847.006 1.65167 843.108 2.36258e-06 839.042 0V0Z" fill="#3F3D56"/>
<path d="M833.82 27.7056H287.344V342.975H833.82V27.7056Z" fill="white"/>
<path d="M560.115 19.1074C563.21 19.1074 565.72 16.541 565.72 13.3752C565.72 10.2094 563.21 7.64307 560.115 7.64307C557.019 7.64307 554.51 10.2094 554.51 13.3752C554.51 16.541 557.019 19.1074 560.115 19.1074Z" fill="white"/>
<path d="M677.537 342.975H287.344V27.7061L677.537 342.975Z" fill="#F2F2F2"/>
<path d="M372.851 319.383C401.862 319.383 425.38 295.331 425.38 265.661C425.38 235.992 401.862 211.939 372.851 211.939C343.84 211.939 320.322 235.992 320.322 265.661C320.322 295.331 343.84 319.383 372.851 319.383Z" fill="#17A2B8"/>
<path d="M384.544 306.038C371.621 306.038 358.988 302.119 348.243 294.776C337.497 287.433 329.122 276.997 324.177 264.786C319.231 252.576 317.937 239.139 320.459 226.177C322.98 213.214 329.203 201.307 338.341 191.961C347.479 182.616 359.122 176.251 371.797 173.673C384.472 171.094 397.609 172.418 409.549 177.475C421.488 182.533 431.693 191.098 438.873 202.088C446.053 213.077 449.885 225.997 449.885 239.213C449.885 247.989 448.195 256.679 444.911 264.786C441.627 272.894 436.814 280.26 430.747 286.466C424.68 292.671 417.476 297.593 409.549 300.952C401.621 304.31 393.125 306.038 384.544 306.038V306.038ZM384.544 173.262C371.79 173.262 359.322 177.13 348.717 184.377C338.112 191.624 329.847 201.924 324.966 213.975C320.085 226.026 318.808 239.287 321.296 252.08C323.785 264.873 329.926 276.625 338.945 285.848C347.964 295.071 359.454 301.353 371.963 303.897C384.472 306.442 397.439 305.136 409.222 300.144C421.005 295.153 431.077 286.7 438.163 275.854C445.249 265.008 449.031 252.257 449.031 239.214C449.031 230.553 447.363 221.977 444.122 213.975C440.881 205.973 436.131 198.703 430.143 192.579C424.155 186.455 417.046 181.597 409.222 178.282C401.398 174.968 393.013 173.262 384.544 173.262L384.544 173.262Z" fill="#3F3D56"/>
<path d="M707.312 191.497H656.265V202.406H707.312V191.497Z" fill="#3F3D56"/>
<path d="M755.607 132.398H607.97V137.074H755.607V132.398Z" fill="#3F3D56"/>
<path d="M755.607 150.766H607.97V155.441H755.607V150.766Z" fill="#3F3D56"/>
<path d="M755.607 169.134H607.97V173.809H755.607V169.134Z" fill="#3F3D56"/>
<path d="M795.156 46.5728H773.823V68.3902H795.156V46.5728Z" fill="#17A2B8"/>
<path d="M805.061 78.52H779.156V52.0273H805.061V78.52ZM780.283 77.3682H803.934V53.1792H780.283L780.283 77.3682Z" fill="#CCCCCC"/>
<path d="M869.715 337.243H816.382V333.313C816.382 333.211 816.363 333.109 816.324 333.015C816.286 332.92 816.23 332.834 816.159 332.762C816.088 332.69 816.004 332.632 815.912 332.593C815.819 332.554 815.72 332.534 815.62 332.534H797.335C797.235 332.534 797.136 332.554 797.043 332.593C796.951 332.632 796.867 332.69 796.796 332.762C796.725 332.834 796.669 332.92 796.631 333.015C796.593 333.109 796.573 333.21 796.573 333.313V337.243H785.145V333.313C785.145 333.211 785.125 333.109 785.087 333.015C785.048 332.92 784.992 332.834 784.922 332.762C784.851 332.69 784.767 332.632 784.674 332.593C784.582 332.554 784.483 332.534 784.383 332.534H766.097C765.997 332.534 765.898 332.554 765.806 332.593C765.713 332.632 765.629 332.69 765.559 332.762C765.488 332.834 765.432 332.92 765.393 333.015C765.355 333.109 765.336 333.211 765.336 333.313V333.313V337.243H753.907V333.313C753.907 333.211 753.887 333.109 753.849 333.015C753.811 332.92 753.755 332.834 753.684 332.762C753.613 332.69 753.529 332.632 753.437 332.593C753.344 332.554 753.245 332.534 753.145 332.534H734.86C734.76 332.534 734.661 332.554 734.568 332.593C734.476 332.632 734.392 332.69 734.321 332.762C734.25 332.834 734.194 332.92 734.156 333.015C734.118 333.109 734.098 333.211 734.098 333.313V333.313V337.243H722.67V333.313C722.67 333.211 722.65 333.109 722.612 333.015C722.573 332.92 722.517 332.834 722.446 332.762C722.376 332.69 722.292 332.632 722.199 332.593C722.107 332.554 722.008 332.534 721.908 332.534H703.622C703.522 332.534 703.423 332.554 703.331 332.593C703.238 332.632 703.154 332.69 703.083 332.762C703.013 332.834 702.957 332.92 702.918 333.015C702.88 333.109 702.86 333.211 702.86 333.313V337.243H691.432V333.313C691.432 333.211 691.412 333.109 691.374 333.015C691.336 332.92 691.28 332.834 691.209 332.762C691.138 332.69 691.054 332.632 690.962 332.593C690.869 332.554 690.77 332.534 690.67 332.534H672.385C672.285 332.534 672.185 332.554 672.093 332.593C672.001 332.632 671.917 332.69 671.846 332.762C671.775 332.834 671.719 332.92 671.681 333.015C671.642 333.109 671.623 333.211 671.623 333.313V333.313V337.243H660.194V333.313C660.194 333.211 660.175 333.109 660.136 333.015C660.098 332.92 660.042 332.834 659.971 332.762C659.9 332.69 659.816 332.632 659.724 332.593C659.632 332.554 659.532 332.534 659.432 332.534H641.147C641.047 332.534 640.948 332.554 640.855 332.593C640.763 332.632 640.679 332.69 640.608 332.762C640.537 332.834 640.481 332.92 640.443 333.015C640.405 333.109 640.385 333.211 640.385 333.313V333.313V337.243H628.957V333.313C628.957 333.211 628.937 333.109 628.899 333.015C628.86 332.92 628.804 332.834 628.734 332.762C628.663 332.69 628.579 332.632 628.486 332.593C628.394 332.554 628.295 332.534 628.195 332.534H484.959C484.859 332.534 484.76 332.554 484.667 332.593C484.575 332.632 484.491 332.69 484.42 332.762C484.349 332.834 484.293 332.92 484.255 333.015C484.217 333.109 484.197 333.211 484.197 333.313V333.313V337.243H472.769V333.313C472.769 333.211 472.749 333.109 472.711 333.015C472.672 332.92 472.616 332.834 472.546 332.762C472.475 332.69 472.391 332.632 472.298 332.593C472.206 332.554 472.107 332.534 472.007 332.534H453.721C453.621 332.534 453.522 332.554 453.43 332.593C453.337 332.632 453.253 332.69 453.183 332.762C453.112 332.834 453.056 332.92 453.017 333.015C452.979 333.109 452.96 333.211 452.96 333.313V333.313V337.243H441.531V333.313C441.531 333.211 441.511 333.109 441.473 333.015C441.435 332.92 441.379 332.834 441.308 332.762C441.237 332.69 441.153 332.632 441.061 332.593C440.968 332.554 440.869 332.534 440.769 332.534H422.484C422.384 332.534 422.285 332.554 422.192 332.593C422.1 332.632 422.016 332.69 421.945 332.762C421.874 332.834 421.818 332.92 421.78 333.015C421.742 333.109 421.722 333.211 421.722 333.313V333.313V337.243H410.293V333.313C410.293 333.211 410.274 333.109 410.235 333.015C410.197 332.92 410.141 332.834 410.07 332.762C410 332.69 409.916 332.632 409.823 332.593C409.731 332.554 409.632 332.534 409.532 332.534H391.246C391.146 332.534 391.047 332.554 390.955 332.593C390.862 332.632 390.778 332.69 390.707 332.762C390.637 332.834 390.581 332.92 390.542 333.015C390.504 333.109 390.484 333.211 390.484 333.313V333.313V337.243H379.056V333.313C379.056 333.211 379.036 333.109 378.998 333.015C378.96 332.92 378.903 332.834 378.833 332.762C378.762 332.69 378.678 332.632 378.586 332.593C378.493 332.554 378.394 332.534 378.294 332.534H360.009C359.909 332.534 359.809 332.554 359.717 332.593C359.625 332.632 359.541 332.69 359.47 332.762C359.399 332.834 359.343 332.92 359.305 333.015C359.266 333.109 359.247 333.211 359.247 333.313V333.313V337.243H347.818V333.313C347.818 333.211 347.799 333.109 347.76 333.015C347.722 332.92 347.666 332.834 347.595 332.762C347.524 332.69 347.44 332.632 347.348 332.593C347.256 332.554 347.156 332.534 347.056 332.534H328.771C328.569 332.534 328.375 332.616 328.232 332.762C328.089 332.908 328.009 333.106 328.009 333.313V337.243H316.581V333.313C316.581 333.211 316.561 333.109 316.523 333.015C316.484 332.92 316.428 332.834 316.358 332.762C316.287 332.69 316.203 332.632 316.11 332.593C316.018 332.554 315.919 332.534 315.819 332.534H297.533C297.331 332.534 297.138 332.616 296.995 332.762C296.852 332.908 296.771 333.106 296.771 333.313V337.243H261.724C256.875 337.243 252.224 339.213 248.795 342.72C245.365 346.227 243.439 350.984 243.439 355.943V364.399C243.439 369.359 245.365 374.116 248.795 377.623C252.224 381.13 256.875 383.1 261.724 383.1H869.715C874.564 383.1 879.215 381.13 882.644 377.623C886.074 374.116 888 369.359 888 364.399V355.943C888 353.488 887.527 351.056 886.608 348.787C885.689 346.518 884.342 344.457 882.644 342.72C880.947 340.984 878.931 339.606 876.712 338.666C874.494 337.726 872.116 337.243 869.715 337.243V337.243Z" fill="#3F3D56"/>
</g>
<defs>
<clipPath id="clip0">
<rect width="888" height="389" fill="white"/>
</clipPath>
</defs>
</svg>
