<svg width="352" height="387" viewBox="0 0 352 387" fill="none" xmlns="http://www.w3.org/2000/svg">
<path d="M162.524 180.822H197.853L303.838 289.315L308.806 298.356V311.353L304.39 320.394L291.694 332.825L283.966 336.781L271.822 340.171L260.782 342.432L239.253 348.082L217.725 353.733L174.668 365.034L117.811 379.726L91.8667 386.507H69.7863L59.2982 382.551L49.914 376.901L42.1859 370.12L32.8017 361.079L16.2414 344.127L6.30525 330.565L2.99319 322.654L0.785156 312.483V295.531L2.99319 286.49L8.51329 275.188L22.8655 259.367L49.362 233.373L52.674 232.243H56.5381L60.4022 233.373L67.0263 239.024L69.2343 243.545V247.5L68.1303 252.021L65.9223 255.976L62.6102 259.367L38.3218 284.23L27.2816 298.921L26.7296 309.093L32.8017 321.524L65.9223 354.863L71.9944 358.254L75.3064 359.949H81.3785H88.5547L92.9707 357.688L96.8348 356.558L100.147 355.428L108.427 353.168L143.756 344.127L174.116 336.781L214.965 326.045L255.814 315.873L278.446 307.962L281.758 305.137L280.102 302.312L224.901 246.935L161.972 180.822H162.524Z" fill="url(#paint0_linear)"/>
<path d="M70.3388 186.473L73.6508 183.082L78.6189 180.822L85.795 177.997L94.6272 175.736L152.588 161.045L199.509 149.178L246.43 137.312L261.334 133.356L268.51 131.661H273.478L277.894 133.356L286.174 136.747L295.007 144.658L307.151 157.089L319.295 169.521L323.711 176.301L325.919 184.212V189.863L323.711 195.514L319.295 202.295L312.119 211.336L301.631 221.507L289.487 233.938L285.07 239.589L283.966 241.849V247.5L285.07 250.89L288.382 254.846L292.247 258.236L296.111 259.932H299.423L301.631 258.801L303.839 257.671L306.599 254.846L309.911 252.021L317.087 244.11L333.647 227.158L340.271 220.942L346.896 209.075L349.104 202.295L350.208 198.904L351.312 194.384V180.822L350.208 176.301L349.104 172.911L348.552 169.521L348 166.13L343.583 157.089L338.063 150.308L334.751 146.918L311.567 123.185L301.631 114.144L292.799 109.623L286.174 107.363L281.758 106.233H278.446L274.03 105.103H261.886L259.678 106.233H256.918L253.606 107.363L251.398 108.493L240.91 110.753L232.078 113.014L227.661 114.144L221.037 116.404L197.853 122.055L184.605 125.445L170.252 128.836L157.004 132.226L150.38 134.486L131.612 139.007L117.26 142.397L100.699 146.918L87.451 150.308L72.5468 153.699L62.6106 158.219L53.7785 164.435L48.2584 170.086L43.8423 177.997L42.7383 183.647V190.428L43.8423 194.949L50.4664 205.12L55.9865 210.771L72.5468 227.723L97.9392 253.716L128.852 285.36L153.14 310.223L155.348 311.353H189.573V310.223L178.533 297.791L158.66 277.449L143.204 261.627L123.332 241.284L93.5232 210.771L70.3388 186.473Z" fill="url(#paint1_linear)"/>
<path d="M98.4898 75.1542L97.9378 76.8494V79.1097L97.3858 85.3254V90.411V92.6713L98.4898 96.6268L100.146 100.582L104.562 107.363L111.186 114.144L114.498 116.404L116.706 117.534L118.914 118.664L121.122 119.795L123.33 120.925L127.746 122.055H148.171L156.451 119.795L164.179 116.404L169.699 113.014L174.115 109.623L179.635 103.973L184.051 99.4521L187.363 93.8014L189.571 89.2809L190.675 85.8905L191.227 82.5001V72.3288V68.9384L190.123 65.548L189.019 62.1576L186.811 58.2021L184.603 54.8117L182.395 52.5514L181.291 51.4213L179.083 49.161L177.979 48.0309L176.875 46.9008L175.771 45.7706V43.5104L174.667 42.3802V38.9898L173.563 36.7295V34.4693L172.459 32.209H169.147L161.419 33.3391L153.691 34.4693L143.755 36.7295L131.61 40.1199L120.57 43.5104L110.082 47.4658L95.1778 54.8117L92.9697 55.9419V58.2021L94.0737 61.5925L95.1778 63.8528V66.1131L96.2818 70.0686L97.3858 72.8939L97.9378 75.1542H98.4898Z" fill="url(#paint2_linear)"/>
<path d="M87.4503 54.8116L94.0744 50.2911L111.739 42.3801L139.339 33.339L164.18 28.2534L175.772 27.1233H177.428L179.084 37.2945L215.516 22.0377L116.707 0L46.6016 70.6336L87.4503 63.8527V54.8116Z" fill="url(#paint3_linear)"/>
<path d="M207.237 29.3835L210.549 30.5137L212.757 38.4246L213.861 44.0753L214.413 45.7705L216.621 48.0308L218.277 50.2911V54.8116L216.621 57.637L213.861 56.5068L211.653 53.1164L210.549 50.2911L211.101 47.4657L211.653 45.2055L209.997 39.5548L208.893 36.1644L207.789 33.339L207.237 32.2089L206.685 31.0788L207.237 29.3835Z" fill="url(#paint4_linear)"/>
<defs>
<linearGradient id="paint0_linear" x1="219.933" y1="200.599" x2="59.4448" y2="261.358" gradientUnits="userSpaceOnUse">
<stop/>
<stop offset="0.159375"/>
<stop offset="0.336458"/>
<stop offset="0.508333"/>
<stop offset="0.664583"/>
<stop offset="0.820833"/>
<stop offset="1"/>
</linearGradient>
<linearGradient id="paint1_linear" x1="350.76" y1="179.692" x2="42.7328" y2="185.624" gradientUnits="userSpaceOnUse">
<stop stop-color="#00411D"/>
<stop offset="0.148958" stop-color="#006E33"/>
<stop offset="0.294792" stop-color="#209E43"/>
<stop offset="0.4875" stop-color="#28A143"/>
<stop offset="0.654167" stop-color="#1A9C43"/>
<stop offset="0.826042" stop-color="#007335"/>
<stop offset="1" stop-color="#005326"/>
</linearGradient>
<linearGradient id="paint2_linear" x1="169.699" y1="32.7741" x2="113.317" y2="111.777" gradientUnits="userSpaceOnUse">
<stop stop-color="#A5CE36"/>
<stop offset="0.315625" stop-color="#93C73C"/>
<stop offset="0.638542" stop-color="#7ABF3F"/>
<stop offset="1" stop-color="#49AD41"/>
</linearGradient>
<linearGradient id="paint3_linear" x1="154.243" y1="9.0411" x2="44.8525" y2="69.0152" gradientUnits="userSpaceOnUse">
<stop stop-color="#B4D330"/>
<stop offset="0.497917" stop-color="#9DCB38"/>
<stop offset="1" stop-color="#56B141"/>
</linearGradient>
<linearGradient id="paint4_linear" x1="207.789" y1="29.3835" x2="217.003" y2="57.5119" gradientUnits="userSpaceOnUse">
<stop stop-color="#A6CE35"/>
<stop offset="0.503125" stop-color="#9CCB39"/>
<stop offset="1" stop-color="#92C73C"/>
</linearGradient>
</defs>
</svg>
