<svg width="192" height="192" viewBox="0 0 192 192" fill="none" xmlns="http://www.w3.org/2000/svg">
<path d="M88.5915 89.8242H107.943L165.996 143.719L168.717 148.21V154.666L166.298 159.158L159.344 165.333L155.111 167.298L148.459 168.982L142.412 170.105L130.62 172.912L118.828 175.719L95.2435 181.333L64.1004 188.631L49.8894 192H37.795L32.0502 190.035L26.9101 187.228L22.677 183.859L17.5369 179.368L8.46609 170.947L3.0236 164.21L1.20944 160.28L0 155.228V146.807L1.20944 142.316L4.23304 136.701L12.0944 128.842L26.6077 115.93L28.4219 115.368H30.5384L32.6549 115.93L36.2832 118.737L37.4927 120.982V122.947L36.8879 125.193L35.6785 127.158L33.8643 128.842L20.5605 141.193L14.5133 148.491L14.2109 153.544L17.5369 159.719L35.6785 176.28L39.0045 177.965L40.8186 178.807H44.1446H48.0753L50.4942 177.684L52.6107 177.123L54.4248 176.561L58.9602 175.438L78.3113 170.947L94.9411 167.298L117.316 161.965L139.69 156.912L152.087 152.982L153.901 151.579L152.994 150.175L122.758 122.666L88.2892 89.8242H88.5915Z" fill="#291357"/>
<path d="M38.0985 92.6306L39.9126 90.9464L42.6339 89.8235L46.5646 88.42L51.4023 87.2972L83.1502 79.999L108.851 74.1042L134.551 68.2095L142.715 66.2446L146.646 65.4025H149.367L151.786 66.2446L156.321 67.9288L161.159 71.8586L167.811 78.0341L174.463 84.2095L176.882 87.5779L178.091 91.5078V94.3148L176.882 97.1218L174.463 100.49L170.532 104.981L164.787 110.034L158.135 116.21L155.717 119.017L155.112 120.139V122.946L155.717 124.631L157.531 126.596L159.647 128.28L161.764 129.122H163.578L164.787 128.56L165.997 127.999L167.509 126.596L169.323 125.192L173.254 121.262L182.324 112.841L185.953 109.753L189.581 103.859L190.79 100.49L191.395 98.806L192 96.5604V89.8235L191.395 87.5779L190.79 85.8937L190.488 84.2095L190.186 82.5253L187.767 78.0341L184.743 74.6656L182.929 72.9814L170.23 61.1919L164.787 56.7007L159.95 54.4551L156.321 53.3323L153.902 52.7709H152.088L149.669 52.2095H143.017L141.808 52.7709H140.296L138.482 53.3323L137.273 53.8937L131.528 55.0165L126.69 56.1393L124.271 56.7007L120.643 57.8235L107.944 60.6305L100.687 62.3147L92.8257 63.999L85.569 65.6832L81.9407 66.806L71.6605 69.0516L63.7991 70.7358L54.7283 72.9814L47.4716 74.6656L39.3079 76.3498L33.8654 78.5955L29.0277 81.6832L26.0041 84.4902L23.5852 88.42L22.9805 91.2271V94.5955L23.5852 96.8411L27.2135 101.894L30.2371 104.701L39.3079 113.122L53.2165 126.034L70.1487 141.753L83.4525 154.104L84.662 154.666H103.408V154.104L97.3611 147.929L86.4761 137.824L78.01 129.964L67.1251 119.859L50.7976 104.701L38.0985 92.6306Z" fill="#291357"/>
<path d="M53.5168 37.3343L53.2144 38.1764V39.2992L52.912 42.387V44.9133V46.0361L53.5168 48.001L54.4238 49.9659L56.8427 53.3343L60.471 56.7028L62.2852 57.8256L63.4947 58.387L64.7041 58.9484L65.9135 59.5098L67.123 60.0712L69.5419 60.6326H80.7292L85.2646 59.5098L89.4976 57.8256L92.5212 56.1414L94.9401 54.4572L97.9637 51.6501L100.383 49.4045L102.197 46.5975L103.406 44.3519L104.011 42.6677L104.313 40.9835V35.9308V34.2466L103.709 32.5624L103.104 30.8782L101.894 28.9133L100.685 27.2291L99.4755 26.1063L98.8708 25.5448L97.6614 24.422L97.0566 23.8606L96.4519 23.2992L95.8472 22.7378V21.615L95.2425 21.0536V19.3694L94.6377 18.2466V17.1238L94.033 16.001H92.2189L87.9858 16.5624L83.7528 17.1238L78.3103 18.2466L71.6584 19.9308L65.6112 21.615L59.8663 23.5799L51.7026 27.2291L50.4932 27.7905V28.9133L51.0979 30.5975L51.7026 31.7203V32.8431L52.3073 34.808L52.912 36.2115L53.2144 37.3343H53.5168Z" fill="#291357"/>
<path d="M47.4684 27.2281L51.0967 24.9825L60.7723 21.0527L75.8903 16.5614L89.4965 14.0351L95.846 13.4737H96.7531L97.6602 18.5263L117.616 10.9474L63.4935 0L25.0938 35.0878L47.4684 31.7193V27.2281Z" fill="#291357"/>
<path d="M113.083 14.5972L114.897 15.1586L116.106 19.0884L116.711 21.8954L117.013 22.7375L118.223 23.8603L119.13 24.9831V27.2288L118.223 28.6323L116.711 28.0709L115.502 26.3867L114.897 24.9831L115.199 23.5796L115.502 22.4568L114.594 19.6498L113.99 17.9656L113.385 16.5621L113.083 16.0007L112.78 15.4393L113.083 14.5972Z" fill="#291357"/>
</svg>
