<svg width="634" height="342" viewBox="0 0 634 342" fill="none" xmlns="http://www.w3.org/2000/svg">
<g clip-path="url(#clip0)">
<path d="M139.159 190.794C139.165 189.744 138.999 188.704 138.671 187.739C138.343 186.774 137.861 185.904 137.255 185.184C136.648 184.464 135.93 183.909 135.146 183.554C134.361 183.199 133.527 183.052 132.696 183.121C131.864 183.19 131.052 183.475 130.312 183.957C129.571 184.438 128.918 185.107 128.392 185.922C127.866 186.736 127.478 187.678 127.254 188.689C127.03 189.7 126.974 190.758 127.09 191.798L109.668 220.53C108.925 222.402 108.636 224.509 108.839 226.587C109.043 228.665 109.728 230.621 110.81 232.21L112.176 234.218L118.447 232.639L125.554 224.742L124.717 215.792L133.496 198.418L133.485 198.406C135.022 198.282 136.464 197.427 137.517 196.013C138.571 194.599 139.158 192.733 139.159 190.794V190.794Z" fill="#FFB9B9"/>
<path d="M18.682 331.261L15.8381 317.959L55.2232 297.816L59.4203 317.448L18.682 331.261Z" fill="#FFB8B8"/>
<path d="M9.16911 338.123L0 295.235L0.430742 295.089C3.94623 293.897 7.69368 294.512 10.8488 296.8C14.0039 299.087 16.3084 302.86 17.2552 307.287L17.2554 307.288L22.8555 333.483L9.16911 338.123Z" fill="#2F2E41"/>
<path d="M72.9332 329.135L64.0875 321.034L84.6911 274.208L97.747 286.165L72.9332 329.135Z" fill="#FFB8B8"/>
<path d="M68.9537 342L40.4304 315.877L40.6927 315.423C42.8341 311.715 46.0572 309.23 49.6533 308.515C53.2494 307.799 56.9238 308.912 59.8684 311.608L59.8691 311.609L77.2901 327.564L68.9537 342Z" fill="#2F2E41"/>
<path d="M148.128 263.7L125.868 236.466C123.925 234.09 121.366 232.676 118.662 232.486C115.957 232.296 113.289 233.341 111.149 235.431L69.1178 294.235L72.8803 301.605L113.012 267.385L140.185 312.135L166.104 295.814L148.128 263.7Z" fill="#2F2E41"/>
<path d="M138.513 269.491L122.209 267.912L110.402 264.307C109.735 262.997 108.766 261.974 107.625 261.377C106.484 260.779 105.225 260.635 104.017 260.963C102.809 261.291 101.71 262.076 100.866 263.213C100.022 264.35 99.4736 265.784 99.2949 267.324C99.1161 268.864 99.3152 270.436 99.8655 271.83C100.416 273.223 101.291 274.372 102.374 275.122C103.457 275.872 104.696 276.187 105.925 276.026C107.154 275.864 108.315 275.234 109.252 274.219L109.25 274.23L116.357 277.915L146.874 291.077L150.636 287.391L138.513 269.491Z" fill="#FFB9B9"/>
<path d="M177.809 326.35L168.612 333.721H157.743L107.16 310.029L33.1663 326.876L31.0761 306.87L98.7992 269.491L158.161 294.235L177.809 326.35Z" fill="#2F2E41"/>
<path d="M158.161 198.418C167.165 198.418 174.465 189.225 174.465 177.886C174.465 166.546 167.165 157.354 158.161 157.354C149.157 157.354 141.857 166.546 141.857 177.886C141.857 189.225 149.157 198.418 158.161 198.418Z" fill="#FFB9B9"/>
<path d="M200.346 259.862C200.345 272.254 198.795 284.568 195.751 296.352L194.531 301.079L188.678 334.773L182.407 336.879L177.809 329.509L168.612 321.085L161.923 307.397L156.188 295.362L154.399 291.603L148.128 252.118L124.3 235.271L116.357 233.691L118.029 227.9L125.136 215.791L132.242 214.738L134.333 212.633L136.005 213.685L145.223 218.158L175.108 202.256L179.481 203.156L194.531 218.95C198.378 232.046 200.347 245.899 200.346 259.862V259.862Z" fill="#CCCCCC"/>
<path opacity="0.1" d="M195.784 255.277L179.899 268.438L156.188 295.362L154.399 291.603L149.382 260.015H150.636L163.596 230.007L195.784 255.277Z" fill="black"/>
<path d="M163.596 226.847L150.636 256.855L143.112 267.385L136.423 269.491L154.399 294.235L179.899 265.279L195.784 252.117L163.596 226.847Z" fill="#CCCCCC"/>
<path d="M145.48 162.619L143.714 163.475C143.445 163.246 143.216 162.953 143.037 162.612C142.859 162.272 142.736 161.891 142.675 161.49C142.613 161.09 142.615 160.678 142.68 160.278C142.746 159.879 142.873 159.5 143.054 159.162C143.064 159.144 143.073 159.127 143.083 159.109L139.819 158.917C141.914 155.402 144.578 152.488 147.635 150.367C150.692 148.246 154.072 146.966 157.55 146.613C161.029 146.26 164.528 146.841 167.815 148.318C171.102 149.795 174.102 152.135 176.618 155.181C176.766 154.537 178.386 155.791 179.048 157.063C179.27 156.014 180.789 161.084 181.327 164.669C181.575 163.475 182.532 165.402 181.694 167.251C182.225 167.153 182.464 168.864 182.053 169.817C182.634 169.473 182.536 171.515 181.907 172.88C182.735 172.787 181.836 194.285 169.398 192.719C168.532 187.708 168.776 188.019 167.757 181.577C167.282 180.942 166.763 180.364 166.244 179.788L163.437 176.668C160.174 173.041 157.206 168.563 152.859 167.208C149.871 166.276 147.982 166.066 149.61 161.826C148.139 162.599 146.766 163.749 145.281 164.467C145.301 163.874 145.509 163.211 145.48 162.619Z" fill="#2F2E41"/>
<path d="M166.313 183.94C167.929 183.94 169.239 182.29 169.239 180.255C169.239 178.219 167.929 176.569 166.313 176.569C164.697 176.569 163.386 178.219 163.386 180.255C163.386 182.29 164.697 183.94 166.313 183.94Z" fill="#FFB9B9"/>
<path d="M29.8489 93.2164L28.9559 110.104L42.3652 111.228L43.2582 94.341L29.8489 93.2164Z" fill="#E6E6E6"/>
<path d="M21.1973 102.184L37.4799 103.549L36.3956 124.055L20.1129 122.689L21.1973 102.184ZM36.7249 104.381L21.8581 103.135L20.868 121.857L35.7348 123.104L36.7249 104.381Z" fill="#CCCCCC"/>
<path d="M105.627 43.1409L92.4877 46.6963L95.3109 63.2432L108.45 59.6878L105.627 43.1409Z" fill="#E6E6E6"/>
<path d="M96.4046 35.126L99.8328 55.2186L83.8782 59.5359L80.4501 39.4433L96.4046 35.126ZM98.9901 54.5328L95.86 36.1873L81.2928 40.1292L84.4229 58.4747L98.9901 54.5328Z" fill="#CCCCCC"/>
<path d="M91.8207 122.605L82.0125 134.175L91.1996 146.527L101.008 134.957L91.8207 122.605Z" fill="#E6E6E6"/>
<path d="M101.713 120.874L89.8031 134.923L78.6473 119.924L90.5573 105.875L101.713 120.874ZM89.8359 133.66L100.71 120.833L90.5245 107.138L79.6502 119.966L89.8359 133.66Z" fill="#CCCCCC"/>
<path d="M599.046 0H201.424C199.987 -2.05697e-06 198.564 0.356499 197.236 1.04915C195.908 1.7418 194.702 2.75702 193.686 4.03687C192.669 5.31672 191.863 6.83613 191.313 8.50833C190.763 10.1805 190.48 11.9728 190.48 13.7828V292.792C190.48 294.602 190.763 296.395 191.313 298.067C191.863 299.739 192.669 301.258 193.686 302.538C194.702 303.818 195.908 304.833 197.236 305.526C198.564 306.219 199.987 306.575 201.424 306.575H599.046C601.948 306.575 604.732 305.123 606.785 302.538C608.837 299.953 609.99 296.448 609.99 292.792V13.7828C609.99 10.1274 608.837 6.62166 606.785 4.03689C604.732 1.45211 601.948 2.07712e-06 599.046 0V0Z" fill="#292835"/>
<path d="M595.317 24.3584H205.153V301.536H595.317V24.3584Z" fill="white"/>
<path d="M399.902 16.7989C402.112 16.7989 403.903 14.5426 403.903 11.7593C403.903 8.97603 402.112 6.71973 399.902 6.71973C397.692 6.71973 395.9 8.97603 395.9 11.7593C395.9 14.5426 397.692 16.7989 399.902 16.7989Z" fill="white"/>
<path d="M483.737 301.536H205.153V24.3584L483.737 301.536Z" fill="#F2F2F2"/>
<path d="M266.202 280.794C286.915 280.794 303.706 259.648 303.706 233.563C303.706 207.478 286.915 186.332 266.202 186.332C245.489 186.332 228.698 207.478 228.698 233.563C228.698 259.648 245.489 280.794 266.202 280.794Z" fill="#17A2B8"/>
<path d="M274.551 269.061C265.324 269.061 256.305 265.616 248.633 259.16C240.961 252.704 234.982 243.529 231.451 232.793C227.92 222.058 226.996 210.245 228.796 198.849C230.596 187.452 235.039 176.984 241.564 168.767C248.088 160.551 256.4 154.955 265.45 152.688C274.499 150.422 283.879 151.585 292.403 156.032C300.928 160.478 308.214 168.009 313.34 177.67C318.466 187.332 321.202 198.691 321.202 210.31C321.202 218.026 319.995 225.665 317.651 232.793C315.306 239.921 311.87 246.398 307.538 251.854C303.206 257.309 298.063 261.637 292.403 264.589C286.743 267.542 280.677 269.061 274.551 269.061V269.061ZM274.551 152.328C265.445 152.328 256.543 155.728 248.972 162.099C241.4 168.471 235.499 177.526 232.014 188.121C228.53 198.716 227.618 210.375 229.394 221.622C231.171 232.87 235.556 243.201 241.995 251.31C248.434 259.419 256.637 264.942 265.569 267.179C274.5 269.416 283.757 268.268 292.17 263.88C300.583 259.491 307.774 252.059 312.833 242.524C317.892 232.989 320.592 221.778 320.592 210.31C320.592 202.696 319.401 195.156 317.087 188.121C314.774 181.087 311.382 174.695 307.107 169.31C302.832 163.926 297.756 159.655 292.17 156.741C286.584 153.827 280.597 152.328 274.551 152.328L274.551 152.328Z" fill="#3F3D56"/>
<path d="M504.995 168.36H468.55V177.951H504.995V168.36Z" fill="#3F3D56"/>
<path d="M539.476 116.401H434.069V120.512H539.476V116.401Z" fill="#3F3D56"/>
<path d="M539.476 132.55H434.069V136.66H539.476V132.55Z" fill="#3F3D56"/>
<path d="M539.476 148.699H434.069V152.81H539.476V148.699Z" fill="#3F3D56"/>
<path d="M567.713 40.9463H552.482V60.1277H567.713V40.9463Z" fill="#17A2B8"/>
<path d="M574.784 69.033H556.29V45.7412H574.784V69.033ZM557.094 68.0203H573.98V46.7539H557.094L557.094 68.0203Z" fill="#CCCCCC"/>
<path d="M620.945 296.497H582.867V293.041C582.867 292.952 582.853 292.862 582.826 292.779C582.799 292.696 582.759 292.621 582.708 292.557C582.658 292.494 582.598 292.443 582.532 292.409C582.466 292.374 582.395 292.356 582.323 292.356H569.268C569.197 292.356 569.126 292.374 569.06 292.409C568.994 292.443 568.934 292.493 568.884 292.557C568.833 292.621 568.793 292.696 568.766 292.779C568.738 292.862 568.724 292.951 568.724 293.041V296.497H560.565V293.041C560.565 292.952 560.551 292.862 560.523 292.779C560.496 292.696 560.456 292.621 560.406 292.557C560.355 292.493 560.295 292.443 560.229 292.409C560.163 292.374 560.092 292.356 560.021 292.356H546.966C546.894 292.356 546.824 292.374 546.758 292.409C546.692 292.443 546.632 292.494 546.581 292.557C546.531 292.621 546.491 292.696 546.463 292.779C546.436 292.862 546.422 292.952 546.422 293.041V293.041V296.497H538.262V293.041C538.262 292.952 538.248 292.862 538.221 292.779C538.194 292.696 538.154 292.621 538.103 292.557C538.053 292.494 537.993 292.443 537.927 292.409C537.861 292.374 537.79 292.356 537.718 292.356H524.663C524.592 292.356 524.521 292.374 524.455 292.409C524.389 292.443 524.329 292.493 524.279 292.557C524.228 292.621 524.188 292.696 524.161 292.779C524.133 292.862 524.119 292.952 524.119 293.041V293.041V296.497H515.96V293.041C515.96 292.952 515.946 292.862 515.918 292.779C515.891 292.696 515.851 292.621 515.801 292.557C515.75 292.493 515.69 292.443 515.624 292.409C515.558 292.374 515.487 292.356 515.416 292.356H502.361C502.289 292.356 502.219 292.374 502.153 292.409C502.087 292.443 502.027 292.493 501.976 292.557C501.926 292.621 501.886 292.696 501.858 292.779C501.831 292.862 501.817 292.951 501.817 293.041V296.497H493.657V293.041C493.657 292.952 493.643 292.862 493.616 292.779C493.589 292.696 493.549 292.621 493.498 292.557C493.447 292.493 493.388 292.443 493.322 292.409C493.256 292.374 493.185 292.356 493.113 292.356H480.058C479.987 292.356 479.916 292.374 479.85 292.409C479.784 292.443 479.724 292.494 479.674 292.557C479.623 292.621 479.583 292.696 479.556 292.779C479.528 292.862 479.514 292.952 479.514 293.041V293.041V296.497H471.355V293.041C471.355 292.952 471.341 292.862 471.313 292.779C471.286 292.696 471.246 292.621 471.195 292.557C471.145 292.494 471.085 292.443 471.019 292.409C470.953 292.374 470.882 292.356 470.811 292.356H457.756C457.684 292.356 457.614 292.374 457.548 292.409C457.482 292.443 457.422 292.493 457.371 292.557C457.321 292.621 457.28 292.696 457.253 292.779C457.226 292.862 457.212 292.952 457.212 293.041V293.041V296.497H449.052V293.041C449.052 292.952 449.038 292.862 449.011 292.779C448.984 292.696 448.943 292.621 448.893 292.557C448.842 292.493 448.782 292.443 448.716 292.409C448.651 292.374 448.58 292.356 448.508 292.356H346.243C346.172 292.356 346.101 292.374 346.035 292.409C345.969 292.443 345.909 292.494 345.858 292.557C345.808 292.621 345.768 292.696 345.741 292.779C345.713 292.862 345.699 292.952 345.699 293.041V293.041V296.497H337.54V293.041C337.54 292.952 337.526 292.862 337.498 292.779C337.471 292.696 337.431 292.621 337.38 292.557C337.33 292.494 337.27 292.443 337.204 292.409C337.138 292.374 337.067 292.356 336.996 292.356H323.941C323.869 292.356 323.798 292.374 323.732 292.409C323.666 292.443 323.606 292.493 323.556 292.557C323.505 292.621 323.465 292.696 323.438 292.779C323.411 292.862 323.397 292.952 323.397 293.041V293.041V296.497H315.237V293.041C315.237 292.952 315.223 292.862 315.196 292.779C315.168 292.696 315.128 292.621 315.078 292.557C315.027 292.494 314.967 292.443 314.901 292.409C314.835 292.374 314.765 292.356 314.693 292.356H301.638C301.567 292.356 301.496 292.374 301.43 292.409C301.364 292.443 301.304 292.494 301.253 292.557C301.203 292.621 301.163 292.696 301.135 292.779C301.108 292.862 301.094 292.952 301.094 293.041V293.041V296.497H292.935V293.041C292.935 292.952 292.921 292.862 292.893 292.779C292.866 292.696 292.826 292.621 292.775 292.557C292.725 292.494 292.665 292.443 292.599 292.409C292.533 292.374 292.462 292.356 292.391 292.356H279.336C279.264 292.356 279.193 292.374 279.127 292.409C279.061 292.443 279.001 292.493 278.951 292.557C278.9 292.621 278.86 292.696 278.833 292.779C278.806 292.862 278.792 292.952 278.792 293.041V293.041V296.497H270.632V293.041C270.632 292.952 270.618 292.862 270.591 292.779C270.563 292.696 270.523 292.621 270.473 292.557C270.422 292.494 270.362 292.443 270.296 292.409C270.23 292.374 270.16 292.356 270.088 292.356H257.033C256.962 292.356 256.891 292.374 256.825 292.409C256.759 292.443 256.699 292.493 256.648 292.557C256.598 292.621 256.558 292.696 256.53 292.779C256.503 292.862 256.489 292.952 256.489 293.041V293.041V296.497H248.33V293.041C248.33 292.952 248.316 292.862 248.288 292.779C248.261 292.696 248.221 292.621 248.17 292.557C248.12 292.493 248.06 292.443 247.994 292.409C247.928 292.374 247.857 292.356 247.786 292.356H234.73C234.586 292.356 234.448 292.429 234.346 292.557C234.244 292.686 234.187 292.86 234.187 293.041V296.497H226.027V293.041C226.027 292.952 226.013 292.862 225.986 292.779C225.958 292.696 225.918 292.621 225.868 292.557C225.817 292.494 225.757 292.443 225.691 292.409C225.625 292.374 225.555 292.356 225.483 292.356H212.428C212.284 292.356 212.145 292.429 212.043 292.557C211.941 292.686 211.884 292.86 211.884 293.041V296.497H186.862C183.399 296.497 180.079 298.229 177.63 301.312C175.182 304.395 173.807 308.577 173.807 312.938V320.372C173.807 324.733 175.182 328.914 177.63 331.998C180.079 335.081 183.399 336.813 186.862 336.813H620.945C624.407 336.813 627.728 335.081 630.176 331.998C632.625 328.914 634 324.733 634 320.372V312.938C634 310.779 633.662 308.641 633.006 306.646C632.35 304.651 631.388 302.839 630.176 301.312C628.964 299.785 627.525 298.574 625.941 297.748C624.357 296.922 622.659 296.497 620.945 296.497V296.497Z" fill="#292835"/>
</g>
<defs>
<clipPath id="clip0">
<rect width="634" height="342" fill="white"/>
</clipPath>
</defs>
</svg>
