<svg width="659" height="337" viewBox="0 0 659 337" fill="none" xmlns="http://www.w3.org/2000/svg">
<path d="M227.884 285.387C305.14 285.387 367.768 282.934 367.768 279.908C367.768 276.883 305.14 274.43 227.884 274.43C150.628 274.43 88 276.883 88 279.908C88 282.934 150.628 285.387 227.884 285.387Z" fill="#D0CDE1"/>
<path d="M454.853 327.1C514.971 327.1 563.707 324.647 563.707 321.622C563.707 318.596 514.971 316.144 454.853 316.144C394.735 316.144 346 318.596 346 321.622C346 324.647 394.735 327.1 454.853 327.1Z" fill="#D0CDE1"/>
<path d="M398 277.723H429.404V291.634H411.133V305.546H429.406V319.456H398V277.723ZM435.685 277.723H467.09V289.82H448.819V292.239H467.09V320.061H435.686V307.358H453.958V304.939H435.685V277.723H435.685ZM473.372 277.723H504.776V289.82H486.505V292.239H504.776V320.061H473.372V307.358H491.643V304.939H473.373V277.723H473.372Z" fill="#01032F"/>
<path d="M128 237.107H140.955V250.665H152.806V237.107H165.762V278.164H152.807V264.416H140.956V278.164H128.001V237.107H128ZM182.798 250.723H171.395V237.107H207.166V250.723H195.756V278.164H182.8V250.723H182.798ZM212.843 237.107H226.351L234.661 251.534L242.962 237.107H256.476V278.164H243.574V257.814L234.661 272.412H234.437L225.519 257.814V278.164H212.843V237.107ZM262.924 237.107H275.883V264.593H294.101V278.164H262.923V237.107H262.924Z" fill="#01032F"/>
<path d="M68.1705 293.156L66.3772 310.695L80.7286 309.662V294.704L68.1705 293.156Z" fill="#FFB8B8"/>
<path d="M55.0148 293.156L56.8089 310.695L42.4575 309.662V294.704L55.0148 293.156Z" fill="#FFB8B8"/>
<path d="M92.6883 158.526C92.6883 158.526 97.4723 183.286 97.4723 186.896C97.4723 190.507 95.6783 213.719 92.6883 218.361C89.6984 223.004 89.1004 225.067 90.2964 227.13C91.4924 229.194 90.8944 228.678 90.2964 230.225C89.6984 231.773 88.5024 231.257 90.2964 233.32C91.0289 234.229 91.4216 235.309 91.4216 236.415C91.4216 237.522 91.0289 238.602 90.2964 239.51C89.1004 241.058 92.6883 282.839 87.9044 285.934C83.1205 289.029 81.9245 299.345 81.9245 299.345L66.3768 297.798V286.45C66.3768 286.45 62.7889 278.197 65.1808 273.038C67.5728 267.88 68.7688 240.542 68.7688 240.542C68.7688 240.542 68.1708 237.963 68.7688 236.415C69.3668 234.868 68.7688 233.836 67.5728 233.32C66.3768 232.804 65.7788 230.741 65.7788 230.741L63.9848 193.086L56.809 230.225C56.809 230.225 63.9849 280.776 56.809 287.481V299.345H41.2613L43.6532 286.45C43.6532 286.45 38.8693 274.586 41.2613 272.007C43.6532 269.428 34.0854 228.162 35.2814 226.615C36.4773 225.067 35.8793 224.551 35.2814 223.52C34.6834 222.488 32.8894 221.456 33.4874 220.425C34.0854 219.393 33.4874 217.33 33.4874 217.33C33.4874 217.33 22.1256 168.843 27.5075 164.2C32.8894 159.558 92.6883 158.526 92.6883 158.526Z" fill="#2F2E41"/>
<path d="M69.9647 303.987C69.9647 303.987 71.1606 299.04 80.7285 300.74C80.7285 300.74 83.1204 305.019 83.1204 307.082C83.1204 309.145 85.5124 323.072 85.5124 323.072C85.5124 323.072 95.0802 336.999 83.1204 336.999C71.1606 336.999 66.9747 333.389 66.3767 329.778C65.7787 326.167 66.9747 325.136 64.5828 323.588C62.1908 322.041 60.9948 322.041 61.5928 319.977C62.1908 317.914 63.3868 307.598 63.3868 307.598C63.3868 307.598 63.9848 299.86 67.2737 301.924L70.5627 303.987" fill="#2F2E41"/>
<path d="M53.2213 303.987C53.2213 303.987 52.0254 299.04 42.4575 300.74C42.4575 300.74 40.0656 305.019 40.0656 307.082C40.0656 309.145 37.6736 323.072 37.6736 323.072C37.6736 323.072 28.1058 336.999 40.0656 336.999C52.0254 336.999 56.2113 333.389 56.8093 329.778C57.4073 326.167 56.2113 325.136 58.6032 323.588C60.9952 322.041 62.1912 322.041 61.5932 319.977C60.9952 317.914 59.7992 307.598 59.7992 307.598C59.7992 307.598 59.2012 299.86 55.9123 301.924L52.6233 303.987" fill="#2F2E41"/>
<path d="M70.563 63.616C79.48 63.616 86.7087 57.3806 86.7087 49.6889C86.7087 41.9971 79.48 35.7617 70.563 35.7617C61.6459 35.7617 54.4172 41.9971 54.4172 49.6889C54.4172 57.3806 61.6459 63.616 70.563 63.616Z" fill="#FFB8B8"/>
<path d="M57.4067 51.752C57.4067 51.752 50.8288 73.9322 49.6328 74.448C48.4368 74.9638 77.1403 77.0271 77.1403 77.0271C77.1403 77.0271 69.9644 57.9418 77.1403 54.8469L57.4067 51.752Z" fill="#FFB8B8"/>
<path d="M53.2062 65.269L53.2055 65.2661L33.4875 77.0276L37.0755 169.359C37.0755 169.359 63.387 166.78 69.3669 167.296C75.3468 167.812 94.4825 162.654 94.4825 162.654L86.1007 75.8935C85.9369 74.1982 85.0755 72.6093 83.6721 71.4141C82.2687 70.2189 80.416 69.4961 78.4487 69.3764L74.8573 69.158C74.8573 69.158 71.2696 76.8202 60.4753 72.8672C58.6553 72.1843 57.0482 71.1401 55.7849 69.8197C54.5217 68.4992 53.6381 66.9399 53.2062 65.269V65.269Z" fill="#D0CDE1"/>
<path d="M53.6831 64.4268L29.3016 74.4485L24.5177 133.768C24.5177 133.768 14.9499 169.359 22.7237 179.676C30.4976 189.992 43.6534 191.024 43.6534 191.024C43.6534 191.024 60.995 131.704 56.2111 111.588C51.4272 91.4706 53.6831 64.4268 53.6831 64.4268Z" fill="#1B1B1B"/>
<path d="M7.77396 153.883V161.621C7.77396 161.621 4.18602 178.643 15.5478 178.127C26.9096 177.611 21.5277 159.557 21.5277 159.557L17.9398 153.883H7.77396Z" fill="#FFB8B8"/>
<path d="M113.02 169.359L111.824 178.128C111.824 178.128 117.804 195.666 106.442 196.182C95.0802 196.698 103.327 178.236 103.327 178.236L107.04 168.328L113.02 169.359Z" fill="#FFB8B8"/>
<path d="M74.4974 67.3545C85.3934 69.6695 95.4902 74.197 103.947 80.5598L104.05 80.6376L95.6784 118.808L94.4824 132.735C94.4824 132.735 116.608 200.824 90.8945 191.023C90.8945 191.023 68.7689 131.704 71.7588 104.365C74.7488 77.0268 74.4974 67.3545 74.4974 67.3545Z" fill="#1B1B1B"/>
<path d="M96.2764 80.1223C96.8744 79.6064 104.05 80.8391 104.05 80.8391C104.05 80.8391 117.206 120.872 117.206 127.578C117.206 134.283 119 172.454 119 172.454L103.215 173.826L90.4382 120.792L96.2764 80.1223Z" fill="#1B1B1B"/>
<path d="M33.4874 74.4478H29.3015C29.3015 74.4478 17.3417 78.5743 16.7437 83.2167C16.1457 87.8591 0 134.799 0 134.799L4.18593 158.526L19.7337 156.463L22.7236 130.156L38.2713 101.27L33.4874 74.4478Z" fill="#1B1B1B"/>
<path d="M67.4261 53.5759L68.0451 49.8536C68.1894 48.986 68.7781 47.8452 69.7566 48.0812C70.589 48.2819 72.4023 48.8964 72.7059 48.7109C73.8429 48.0162 75.5635 49.231 76.7591 48.6138C77.26 48.3552 77.5868 47.8013 78.169 47.7643C78.5596 47.7858 78.9277 47.9296 79.204 48.1687C79.9802 48.7509 80.8946 49.1795 81.8833 49.4242C82.3793 49.5407 82.9024 49.5407 83.3983 49.4241C83.8943 49.3075 84.345 49.0785 84.7039 48.761C84.8306 48.5919 85.0014 48.4507 85.2027 48.3486C85.4389 48.2899 85.6909 48.2999 85.9199 48.3771L88.9748 49.0945C89.424 47.6893 89.5163 46.2171 89.2453 44.7783C88.9742 43.3395 88.3462 41.9682 87.4043 40.7581C86.165 39.307 84.6626 38.0378 82.9549 36.9994C81.0631 35.7579 79.1107 34.5902 77.0978 33.4963C74.9637 32.1938 72.5414 31.2848 69.9819 30.8259C67.4058 30.4884 64.5213 31.0921 62.9009 32.8523C62.1387 32.3765 61.5658 31.7089 61.2608 30.9411C61.0791 31.0837 60.9359 31.259 60.8413 31.4545C60.7467 31.6501 60.7031 31.8612 60.7134 32.0729C60.7237 32.2845 60.7878 32.4917 60.9011 32.6797C61.0144 32.8677 61.1741 33.032 61.3691 33.1609L58.7855 31.7378C58.0592 32.3956 59.4782 33.5884 58.8594 34.3234C58.6722 34.5052 58.4321 34.6404 58.1638 34.7151C56.761 35.1868 55.4753 35.8848 54.3756 36.7718C52.9832 38.1401 51.9638 39.76 51.3921 41.5125C49.8526 45.3224 48.7336 49.6915 50.921 53.2578C51.169 53.6621 54.4423 60.3353 54.8784 60.5955C56.3526 61.4751 55.3929 59.3463 56.4493 60.5955C57.2776 61.5751 57.1225 57.8259 58.3536 58.6488C58.8363 58.9467 59.4087 59.1175 60.0015 59.1405C60.5944 59.1635 61.1823 59.0377 61.694 58.7784C62.2044 58.4731 62.0399 56.7776 61.7645 55.2206C61.7118 54.9241 61.7443 54.6209 61.8591 54.3377C61.9738 54.0544 62.1674 53.7998 62.4227 53.5961C62.6781 53.3924 62.9875 53.2459 63.3238 53.1693C63.6601 53.0927 64.0131 53.0885 64.3517 53.157C65.885 53.4681 67.3998 53.7339 67.4261 53.5759Z" fill="#2F2E41"/>
<path opacity="0.2" d="M97.7712 126.803L104.349 173.743H100.163L97.7712 126.803Z" fill="black"/>
<path opacity="0.2" d="M28.4045 108.75L25.0789 126.804L31.3945 108.75H29.6003H28.4045Z" fill="black"/>
<path d="M525 0.206055H171.018V231.865H525V0.206055Z" fill="#E6E6E6"/>
<path d="M514.878 29.2612H181.14V218.159H514.878V29.2612Z" fill="white"/>
<path d="M524.849 0H170.867V15.367H524.849V0Z" fill="#363A4B"/>
<path d="M182.042 10.7041C183.582 10.7041 184.829 9.42896 184.829 7.85597C184.829 6.28298 183.582 5.00781 182.042 5.00781C180.503 5.00781 179.255 6.28298 179.255 7.85597C179.255 9.42896 180.503 10.7041 182.042 10.7041Z" fill="white"/>
<path d="M192.622 10.7041C194.161 10.7041 195.409 9.42896 195.409 7.85597C195.409 6.28298 194.161 5.00781 192.622 5.00781C191.082 5.00781 189.834 6.28298 189.834 7.85597C189.834 9.42896 191.082 10.7041 192.622 10.7041Z" fill="white"/>
<path d="M203.202 10.7041C204.741 10.7041 205.989 9.42896 205.989 7.85597C205.989 6.28298 204.741 5.00781 203.202 5.00781C201.662 5.00781 200.414 6.28298 200.414 7.85597C200.414 9.42896 201.662 10.7041 203.202 10.7041Z" fill="white"/>
<path d="M420.445 46.9535H311.791C311.559 46.9223 311.346 46.806 311.192 46.6262C311.037 46.4465 310.952 46.2156 310.952 45.9765C310.952 45.7375 311.037 45.5066 311.192 45.3268C311.346 45.1471 311.559 45.0307 311.791 44.9995H420.445C420.677 45.0307 420.89 45.1471 421.044 45.3268C421.198 45.5066 421.283 45.7375 421.283 45.9765C421.283 46.2156 421.198 46.4465 421.044 46.6262C420.89 46.806 420.677 46.9223 420.445 46.9535V46.9535Z" fill="#CCCCCC"/>
<path d="M345.158 57.7006H276.076C275.844 57.6694 275.631 57.553 275.477 57.3733C275.322 57.1936 275.237 56.9626 275.237 56.7236C275.237 56.4845 275.322 56.2536 275.477 56.0739C275.631 55.8942 275.844 55.7778 276.076 55.7466H345.158C345.39 55.7778 345.603 55.8942 345.757 56.0739C345.912 56.2536 345.997 56.4845 345.997 56.7236C345.997 56.9626 345.912 57.1936 345.757 57.3733C345.603 57.553 345.39 57.6694 345.158 57.7006V57.7006Z" fill="#CCCCCC"/>
<path d="M420.445 57.8959H351.362C351.13 57.8647 350.917 57.7483 350.763 57.5686C350.609 57.3888 350.524 57.158 350.524 56.9189C350.524 56.6798 350.609 56.4489 350.763 56.2692C350.917 56.0895 351.13 55.9731 351.362 55.9419H420.445C420.677 55.9731 420.89 56.0895 421.044 56.2692C421.198 56.4489 421.283 56.6798 421.283 56.9189C421.283 57.158 421.198 57.3888 421.044 57.5686C420.89 57.7483 420.677 57.8647 420.445 57.8959H420.445Z" fill="#CCCCCC"/>
<path d="M345.326 68.4477H276.243C276.011 68.4164 275.799 68.3001 275.644 68.1204C275.49 67.9406 275.405 67.7097 275.405 67.4707C275.405 67.2316 275.49 67.0007 275.644 66.821C275.799 66.6412 276.011 66.5249 276.243 66.4937H345.326C345.558 66.5249 345.771 66.6412 345.925 66.821C346.079 67.0007 346.164 67.2316 346.164 67.4707C346.164 67.7097 346.079 67.9406 345.925 68.1204C345.771 68.3001 345.558 68.4164 345.326 68.4477V68.4477Z" fill="#CCCCCC"/>
<path d="M345.494 79.1952H276.411C276.179 79.164 275.966 79.0477 275.812 78.8679C275.658 78.6882 275.573 78.4573 275.573 78.2182C275.573 77.9792 275.658 77.7483 275.812 77.5685C275.966 77.3888 276.179 77.2725 276.411 77.2412H345.494C345.726 77.2725 345.939 77.3888 346.093 77.5685C346.247 77.7483 346.332 77.9792 346.332 78.2182C346.332 78.4573 346.247 78.6882 346.093 78.8679C345.939 79.0477 345.726 79.164 345.494 79.1952V79.1952Z" fill="#CCCCCC"/>
<path d="M376.849 68.4477H357.063C356.832 68.4164 356.619 68.3001 356.464 68.1204C356.31 67.9406 356.225 67.7097 356.225 67.4707C356.225 67.2316 356.31 67.0007 356.464 66.821C356.619 66.6412 356.832 66.5249 357.063 66.4937H376.849C377.081 66.5249 377.294 66.6412 377.448 66.821C377.603 67.0007 377.688 67.2316 377.688 67.4707C377.688 67.7097 377.603 67.9406 377.448 68.1204C377.294 68.3001 377.081 68.4164 376.849 68.4477V68.4477Z" fill="#CCCCCC"/>
<path d="M376.849 79.0004H357.063C356.832 78.9692 356.619 78.8528 356.464 78.6731C356.31 78.4934 356.225 78.2625 356.225 78.0234C356.225 77.7844 356.31 77.5534 356.464 77.3737C356.619 77.194 356.832 77.0776 357.063 77.0464H376.849C377.081 77.0776 377.294 77.194 377.448 77.3737C377.603 77.5534 377.688 77.7844 377.688 78.0234C377.688 78.2625 377.603 78.4934 377.448 78.6731C377.294 78.8528 377.081 78.9692 376.849 79.0004V79.0004Z" fill="#CCCCCC"/>
<path d="M410.049 79.0004H390.263C390.031 78.9692 389.819 78.8528 389.664 78.6731C389.51 78.4934 389.425 78.2625 389.425 78.0234C389.425 77.7844 389.51 77.5534 389.664 77.3737C389.819 77.194 390.031 77.0776 390.263 77.0464H410.049C410.281 77.0776 410.494 77.194 410.648 77.3737C410.803 77.5534 410.888 77.7844 410.888 78.0234C410.888 78.2625 410.803 78.4934 410.648 78.6731C410.494 78.8528 410.281 78.9692 410.049 79.0004V79.0004Z" fill="#CCCCCC"/>
<path d="M295.359 46.9535H275.573C275.341 46.9223 275.128 46.806 274.974 46.6262C274.819 46.4465 274.734 46.2156 274.734 45.9765C274.734 45.7375 274.819 45.5066 274.974 45.3268C275.128 45.1471 275.341 45.0307 275.573 44.9995H295.359C295.591 45.0307 295.803 45.1471 295.958 45.3268C296.112 45.5066 296.197 45.7375 296.197 45.9765C296.197 46.2156 296.112 46.4465 295.958 46.6262C295.803 46.806 295.591 46.9223 295.359 46.9535Z" fill="#CCCCCC"/>
<path d="M344.907 170.179H275.824C275.592 170.147 275.379 170.031 275.225 169.851C275.071 169.672 274.986 169.441 274.986 169.202C274.986 168.963 275.071 168.732 275.225 168.552C275.379 168.372 275.592 168.256 275.824 168.225H344.907C345.139 168.256 345.352 168.372 345.506 168.552C345.66 168.732 345.745 168.963 345.745 169.202C345.745 169.441 345.66 169.672 345.506 169.851C345.352 170.031 345.139 170.147 344.907 170.179H344.907Z" fill="#CCCCCC"/>
<path d="M344.571 191.673H275.489C275.257 191.642 275.044 191.526 274.89 191.346C274.735 191.166 274.65 190.935 274.65 190.696C274.65 190.457 274.735 190.226 274.89 190.047C275.044 189.867 275.257 189.75 275.489 189.719H344.571C344.803 189.75 345.016 189.867 345.171 190.047C345.325 190.226 345.41 190.457 345.41 190.696C345.41 190.935 345.325 191.166 345.171 191.346C345.016 191.526 344.803 191.642 344.571 191.673H344.571Z" fill="#CCCCCC"/>
<path d="M344.739 202.42H275.657C275.425 202.389 275.212 202.272 275.057 202.093C274.903 201.913 274.818 201.682 274.818 201.443C274.818 201.204 274.903 200.973 275.057 200.793C275.212 200.613 275.425 200.497 275.657 200.466H344.739C344.971 200.497 345.184 200.613 345.338 200.793C345.493 200.973 345.578 201.204 345.578 201.443C345.578 201.682 345.493 201.913 345.338 202.093C345.184 202.272 344.971 202.389 344.739 202.42H344.739Z" fill="#CCCCCC"/>
<path d="M374.25 191.868H354.464C354.232 191.837 354.019 191.721 353.865 191.541C353.711 191.361 353.626 191.13 353.626 190.891C353.626 190.652 353.711 190.421 353.865 190.241C354.019 190.062 354.232 189.945 354.464 189.914H374.25C374.482 189.945 374.695 190.062 374.849 190.241C375.004 190.421 375.089 190.652 375.089 190.891C375.089 191.13 375.004 191.361 374.849 191.541C374.695 191.721 374.482 191.837 374.25 191.868V191.868Z" fill="#CCCCCC"/>
<path d="M374.25 202.42H354.464C354.232 202.389 354.019 202.272 353.865 202.093C353.711 201.913 353.626 201.682 353.626 201.443C353.626 201.204 353.711 200.973 353.865 200.793C354.019 200.613 354.232 200.497 354.464 200.466H374.25C374.482 200.497 374.695 200.613 374.849 200.793C375.004 200.973 375.089 201.204 375.089 201.443C375.089 201.682 375.004 201.913 374.849 202.093C374.695 202.272 374.482 202.389 374.25 202.42V202.42Z" fill="#CCCCCC"/>
<path d="M407.45 191.868H387.664C387.432 191.837 387.219 191.721 387.065 191.541C386.911 191.361 386.826 191.13 386.826 190.891C386.826 190.652 386.911 190.421 387.065 190.241C387.219 190.062 387.432 189.945 387.664 189.914H407.45C407.682 189.945 407.895 190.062 408.049 190.241C408.203 190.421 408.289 190.652 408.289 190.891C408.289 191.13 408.203 191.361 408.049 191.541C407.895 191.721 407.682 191.837 407.45 191.868V191.868Z" fill="#CCCCCC"/>
<path d="M420.529 180.925H311.875C311.643 180.894 311.43 180.778 311.275 180.598C311.121 180.418 311.036 180.187 311.036 179.948C311.036 179.709 311.121 179.478 311.275 179.299C311.43 179.119 311.643 179.002 311.875 178.971H420.529C420.761 179.002 420.974 179.119 421.128 179.299C421.282 179.478 421.367 179.709 421.367 179.948C421.367 180.187 421.282 180.418 421.128 180.598C420.974 180.778 420.761 180.894 420.529 180.925V180.925Z" fill="#CCCCCC"/>
<path d="M295.442 180.925H275.656C275.425 180.894 275.212 180.778 275.057 180.598C274.903 180.418 274.818 180.187 274.818 179.948C274.818 179.709 274.903 179.478 275.057 179.299C275.212 179.119 275.425 179.002 275.656 178.971H295.442C295.674 179.002 295.887 179.119 296.041 179.299C296.196 179.478 296.281 179.709 296.281 179.948C296.281 180.187 296.196 180.418 296.041 180.598C295.887 180.778 295.674 180.894 295.442 180.925V180.925Z" fill="#CCCCCC"/>
<path d="M328.223 96.5552L301.395 123.627L328.223 150.699L334.26 144.531L313.97 123.798L334.427 102.895L328.223 96.5552Z" fill="#E6E6E6"/>
<path d="M367.795 96.5552L394.623 123.627L367.795 150.699L361.759 144.531L382.047 123.798L361.591 102.895L367.795 96.5552Z" fill="#E6E6E6"/>
<path d="M328.223 96.5552L301.395 123.627L328.223 150.699L334.26 144.531L313.97 123.798L334.427 102.895L328.223 96.5552Z" fill="#363A4B"/>
<path d="M367.795 96.5552L394.623 123.627L367.795 150.699L361.759 144.531L382.047 123.798L361.591 102.895L367.795 96.5552Z" fill="#363A4B"/>
<path d="M641.362 268.503V298.156H633.07L627.543 267.091L641.362 268.503Z" fill="#FFB9B9"/>
<path d="M575.725 268.503V298.156H567.434L561.906 267.091L575.725 268.503Z" fill="#FFB9B9"/>
<path d="M619.463 49.9149C619.463 49.9149 606.14 40.1297 604.474 44.8095C602.809 49.4894 614.467 57.9983 614.467 57.9983L619.463 49.9149Z" fill="#FFB9B9"/>
<path d="M572.208 62.4658C572.208 79.3833 579.336 79.9089 590.948 79.9089C602.56 79.9089 614.258 79.3833 614.258 62.4658C614.258 45.5483 604.845 31.834 593.233 31.834C581.621 31.834 572.208 45.5483 572.208 62.4658Z" fill="#2F2E41"/>
<path d="M600.727 62.2525C600.727 62.2525 599.062 75.0157 606.972 75.8666C614.883 76.7175 581.159 79.2702 581.159 79.2702C581.159 79.2702 589.902 71.1868 585.322 64.8051C580.743 58.4235 600.727 62.2525 600.727 62.2525Z" fill="#FFB9B9"/>
<path d="M642.778 290.29L645.693 315.391C645.693 315.391 660.265 333.685 651.105 332.409C641.945 331.132 636.117 332.68 636.117 330.978C636.117 329.277 635.901 323.196 634.652 323.196C633.403 323.196 632.369 332.798 632.369 332.798C632.369 332.798 628.622 332.508 628.206 332.082C627.79 331.657 627.373 307.308 627.373 307.308C627.373 307.308 626.124 300.075 628.622 296.672C631.12 293.268 630.704 290.29 630.704 290.29L642.778 290.29Z" fill="#2F2E41"/>
<path d="M576.45 290.015L579.365 315.116C579.365 315.116 593.937 333.41 584.777 332.133C575.618 330.857 569.789 332.405 569.789 330.703C569.789 329.001 569.574 322.921 568.325 322.921C567.075 322.921 566.042 332.522 566.042 332.522C566.042 332.522 562.295 332.232 561.878 331.807C561.462 331.381 561.046 307.032 561.046 307.032C561.046 307.032 559.797 299.8 562.295 296.396C564.793 292.993 564.376 290.015 564.376 290.015H576.45Z" fill="#2F2E41"/>
<path d="M621.128 140.959C621.128 140.959 634.451 179.675 635.284 188.184C636.117 196.692 634.451 225.622 634.451 225.622C634.451 225.622 646.525 275.608 644.027 276.034C641.529 276.459 627.618 278.476 627.201 276.349C626.785 274.222 625.301 270.929 625.717 269.652C626.133 268.376 624.468 263.696 624.468 261.143C624.468 258.591 618.63 245.193 619.046 243.066C619.463 240.938 611.969 209.456 610.72 206.903C609.47 204.35 606.14 186.482 606.14 186.482C606.14 186.482 587.404 238.811 586.988 240.088C586.571 241.364 584.906 243.491 585.739 243.917C586.571 244.342 584.49 247.32 584.49 247.32C584.49 247.32 580.175 264.972 580.175 265.823C580.175 266.674 581.008 276.305 579.343 276.731C577.677 277.156 560.666 277.129 559.834 274.151C559.001 271.173 568.669 236.684 568.669 236.684C568.669 236.684 575.746 214.986 573.665 209.456C571.583 203.925 575.746 170.74 577.412 168.188C579.077 165.635 579.494 150.319 579.494 150.319L621.128 140.959Z" fill="#2F2E41"/>
<path d="M593.441 69.2727C600.799 69.2727 606.764 63.1775 606.764 55.6586C606.764 48.1397 600.799 42.0444 593.441 42.0444C586.083 42.0444 580.118 48.1397 580.118 55.6586C580.118 63.1775 586.083 69.2727 593.441 69.2727Z" fill="#FFB9B9"/>
<path d="M600.727 72.8887C600.727 72.8887 585.739 73.3142 584.906 72.0378C584.073 70.7615 563.256 75.0159 563.256 83.5248C563.256 92.0336 575.33 125.218 575.33 125.218C575.33 125.218 579.91 149.043 578.661 151.596C577.412 154.148 624.875 146.065 623.626 141.81C622.377 137.556 615.299 128.196 624.459 120.113C633.619 112.029 637.366 103.521 637.366 103.521L626.541 74.165C626.541 74.165 615.716 72.4633 613.218 74.165C610.72 75.8668 600.727 72.8887 600.727 72.8887Z" fill="#363A4B"/>
<path d="M634.451 105.648L637.366 103.52C637.366 103.52 664.428 74.5903 657.35 69.0596C650.273 63.5288 639.864 58.4235 634.868 57.9981C629.872 57.5726 625.708 53.7437 625.708 53.7437C625.708 53.7437 620.296 43.9585 616.132 50.3401C611.969 56.7218 607.389 58.849 613.218 60.9762C619.047 63.1034 622.794 62.2525 625.708 64.3797C628.623 66.5069 639.864 69.9105 634.868 71.1868C632.003 71.8964 629.214 72.894 626.541 74.1649L621.128 83.9501L634.451 105.648Z" fill="#363A4B"/>
<path d="M587.404 177.548C587.404 177.548 598.229 193.715 590.319 192.864C582.408 192.013 578.661 180.951 578.661 180.951L587.404 177.548Z" fill="#FFB9B9"/>
<path d="M566.17 81.3975L563.256 83.5247C563.256 83.5247 553.68 137.13 563.256 151.17C572.832 165.21 573.665 164.359 573.665 164.359C573.665 164.359 575.33 163.082 576.163 171.591C576.995 180.1 575.746 183.504 578.244 183.504C580.743 183.504 591.984 180.951 591.151 178.824C590.319 176.697 584.906 164.359 584.49 161.381C584.073 158.402 581.992 151.595 581.159 147.766C580.326 143.937 584.906 141.81 582.824 133.727C580.743 125.643 577.828 111.178 577.828 108.2C577.828 105.222 566.17 81.3975 566.17 81.3975Z" fill="#363A4B"/>
<path d="M580.534 43.5329C580.534 48.1148 586.686 51.8291 594.274 51.8291C601.862 51.8291 608.846 54.2837 608.846 49.7018C608.846 45.12 601.862 35.2368 594.274 35.2368C586.686 35.2368 580.534 38.9511 580.534 43.5329Z" fill="#2F2E41"/>
<path d="M614.134 65.3364C614.134 65.3364 614.695 80.7592 599.696 79.9083C584.698 79.0574 601.723 66.7252 601.723 66.7252L614.134 65.3364Z" fill="#2F2E41"/>
<path d="M659 335.902H11V337H659V335.902Z" fill="#3F3D56"/>
</svg>
