<svg width="423" height="441" viewBox="0 0 423 441" fill="none" xmlns="http://www.w3.org/2000/svg">
<path d="M192.5 160H224.5L320.5 256L325 264V275.5L321 283.5L309.5 294.5L302.5 298L291.5 301L281.5 303L262 308L242.5 313L203.5 323L152 336L128.5 342H108.5L99 338.5L90.5 333.5L83.5 327.5L75 319.5L60 304.5L51 292.5L48 285.5L46 276.5V261.5L48 253.5L53 243.5L66 229.5L90 206.5L93 205.5H96.5L100 206.5L106 211.5L108 215.5V219L107 223L105 226.5L102 229.5L80 251.5L70 264.5L69.5 273.5L75 284.5L105 314L110.5 317L113.5 318.5H119H125.5L129.5 316.5L133 315.5L136 314.5L143.5 312.5L175.5 304.5L203 298L240 288.5L277 279.5L297.5 272.5L300.5 270L299 267.5L249 218.5L192 160H192.5Z" fill="url(#paint0_linear)"/>
<path d="M109 165L112 162L116.5 160L123 157.5L131 155.5L183.5 142.5L226 132L268.5 121.5L282 118L288.5 116.5H293L297 118L304.5 121L312.5 128L323.5 139L334.5 150L338.5 156L340.5 163V168L338.5 173L334.5 179L328 187L318.5 196L307.5 207L303.5 212L302.5 214V219L303.5 222L306.5 225.5L310 228.5L313.5 230H316.5L318.5 229L320.5 228L323 225.5L326 223L332.5 216L347.5 201L353.5 195.5L359.5 185L361.5 179L362.5 176L363.5 172V160L362.5 156L361.5 153L361 150L360.5 147L356.5 139L351.5 133L348.5 130L327.5 109L318.5 101L310.5 97L304.5 95L300.5 94H297.5L293.5 93H282.5L280.5 94H278L275 95L273 96L263.5 98L255.5 100L251.5 101L245.5 103L224.5 108L212.5 111L199.5 114L187.5 117L181.5 119L164.5 123L151.5 126L136.5 130L124.5 133L111 136L102 140L94 145.5L89 150.5L85 157.5L84 162.5V168.5L85 172.5L91 181.5L96 186.5L111 201.5L134 224.5L162 252.5L184 274.5L186 275.5H217V274.5L207 263.5L189 245.5L175 231.5L157 213.5L130 186.5L109 165Z" fill="url(#paint1_linear)"/>
<path d="M134.5 66.5L134 68V70L133.5 75.5V80V82L134.5 85.5L136 89L140 95L146 101L149 103L151 104L153 105L155 106L157 107L161 108H179.5L187 106L194 103L199 100L203 97L208 92L212 88L215 83L217 79L218 76L218.5 73V64V61L217.5 58L216.5 55L214.5 51.5L212.5 48.5L210.5 46.5L209.5 45.5L207.5 43.5L206.5 42.5L205.5 41.5L204.5 40.5V38.5L203.5 37.5V34.5L202.5 32.5V30.5L201.5 28.5H198.5L191.5 29.5L184.5 30.5L175.5 32.5L164.5 35.5L154.5 38.5L145 42L131.5 48.5L129.5 49.5V51.5L130.5 54.5L131.5 56.5V58.5L132.5 62L133.5 64.5L134 66.5H134.5Z" fill="url(#paint2_linear)"/>
<path d="M124.5 48.5L130.5 44.5L146.5 37.5L171.5 29.5L194 25L204.5 24H206L207.5 33L240.5 19.5L151 0L87.5 62.5L124.5 56.5V48.5Z" fill="url(#paint3_linear)"/>
<path d="M233 26L236 27L238 34L239 39L239.5 40.5L241.5 42.5L243 44.5V48.5L241.5 51L239 50L237 47L236 44.5L236.5 42L237 40L235.5 35L234.5 32L233.5 29.5L233 28.5L232.5 27.5L233 26Z" fill="url(#paint4_linear)"/>
<path d="M11.2 356H35.2V368H16L15.7 368.6L31.7 397.8C34.9667 403.667 36.6 408.133 36.6 411.2C36.6 417.933 34.3667 422.867 29.9 426H3.4V414.4H24.1L24.4 413.8L6.4 381.5C3.8 376.833 2.5 373.033 2.5 370.1C2.5 363.167 5.4 358.467 11.2 356ZM43.0695 426V374.9H56.2695V426H43.0695ZM43.0695 356H56.2695V369.5H43.0695V356ZM87.0469 374.9H94.1469L96.6469 378.4C98.0469 377.133 99.3802 376.233 100.647 375.7C101.98 375.167 103.947 374.9 106.547 374.9H117.647C120.58 378.633 122.58 382.367 123.647 386.1C124.714 389.833 125.247 394.5 125.247 400.1V426H111.947V399.1C111.947 392.967 111.014 388.4 109.147 385.4H99.5469C101.014 388.267 101.747 392.167 101.747 397.1V426H88.4469V399.1C88.4469 392.767 87.5802 388.2 85.8469 385.4H78.1469V426H64.8469V374.9H75.2469L77.0469 378.5C78.5135 377.167 79.8802 376.233 81.1469 375.7C82.4802 375.167 84.4469 374.9 87.0469 374.9ZM133.402 374.9H144.102L145.602 378.5C147.068 377.167 148.435 376.233 149.702 375.7C151.035 375.167 153.002 374.9 155.602 374.9H164.602C167.402 377.633 169.602 381.167 171.202 385.5C172.802 389.833 173.602 394.6 173.602 399.8C173.602 410.933 170.268 419.667 163.602 426H155.102C151.568 426 148.768 425.067 146.702 423.2V441H133.402V374.9ZM146.702 415.5H156.302C158.768 411.3 160.002 406.2 160.002 400.2C160.002 394.2 158.735 389.267 156.202 385.4H146.702V415.5ZM193.965 356V426H180.765V356H193.965ZM202.542 426V374.9H215.742V426H202.542ZM202.542 356H215.742V369.5H202.542V356ZM237.52 356V426H224.32V356H237.52ZM269.197 385.4H261.697C260.697 386.6 259.864 388.267 259.197 390.4C258.597 392.533 258.297 394.6 258.297 396.6H272.597C272.73 394.6 272.464 392.533 271.797 390.4C271.13 388.2 270.264 386.533 269.197 385.4ZM282.797 415.5V426H257.397C252.73 422.867 249.43 419 247.497 414.4C245.63 409.733 244.697 405.033 244.697 400.3C244.697 389.367 248.83 380.9 257.097 374.9H273.297C277.764 378.167 280.797 381.633 282.397 385.3C283.997 388.967 284.797 392.667 284.797 396.4C284.797 400.133 284.497 403.333 283.897 406H258.997C259.197 407.533 259.764 409.3 260.697 411.3C261.697 413.233 262.764 414.633 263.897 415.5H282.797ZM315.607 402.9H304.907C303.507 404.633 302.807 406.8 302.807 409.4C302.807 412 303.54 414.033 305.007 415.5H315.607V402.9ZM294.107 374.9H318.907C322.907 377.3 325.54 380.067 326.807 383.2C328.074 386.267 328.707 390.467 328.707 395.8V410.8C328.707 416.333 328.84 421.4 329.107 426H317.707L315.907 422.4C313.307 424.8 309.64 426 304.907 426H298.607C292.94 422.267 290.107 416.9 290.107 409.9C290.107 402.833 293.007 397.267 298.807 393.2H308.207C310.807 393.2 313.24 394 315.507 395.6V390.6C315.507 388 314.374 386.267 312.107 385.4H294.107V374.9ZM337.408 426V374.9H346.908L349.408 380.3C352.074 376.7 355.441 374.9 359.508 374.9H363.408V388.3H350.708V426H337.408ZM391.344 374.9H401.944C404.877 378.633 406.877 382.367 407.944 386.1C409.01 389.833 409.544 394.5 409.544 400.1V426H396.244V399.1C396.244 392.767 395.377 388.2 393.644 385.4H382.444V426H369.144V374.9H379.544L381.344 378.5C382.81 377.167 384.177 376.233 385.444 375.7C386.777 375.167 388.744 374.9 391.344 374.9Z" fill="url(#paint5_linear)"/>
<defs>
<linearGradient id="paint0_linear" x1="244.5" y1="177.5" x2="100" y2="233.5" gradientUnits="userSpaceOnUse">
<stop/>
<stop offset="0.159375"/>
<stop offset="0.336458"/>
<stop offset="0.508333"/>
<stop offset="0.664583"/>
<stop offset="0.820833"/>
<stop offset="1"/>
</linearGradient>
<linearGradient id="paint1_linear" x1="363" y1="159" x2="84" y2="164.5" gradientUnits="userSpaceOnUse">
<stop stop-color="#00411D"/>
<stop offset="0.148958" stop-color="#006E33"/>
<stop offset="0.294792" stop-color="#209E43"/>
<stop offset="0.4875" stop-color="#28A143"/>
<stop offset="0.654167" stop-color="#1A9C43"/>
<stop offset="0.826042" stop-color="#007335"/>
<stop offset="1" stop-color="#005326"/>
</linearGradient>
<linearGradient id="paint2_linear" x1="199" y1="29" x2="149.5" y2="100" gradientUnits="userSpaceOnUse">
<stop stop-color="#A5CE36"/>
<stop offset="0.315625" stop-color="#93C73C"/>
<stop offset="0.638542" stop-color="#7ABF3F"/>
<stop offset="1" stop-color="#49AD41"/>
</linearGradient>
<linearGradient id="paint3_linear" x1="185" y1="8.00001" x2="87" y2="63" gradientUnits="userSpaceOnUse">
<stop stop-color="#B4D330"/>
<stop offset="0.497917" stop-color="#9DCB38"/>
<stop offset="1" stop-color="#56B141"/>
</linearGradient>
<linearGradient id="paint4_linear" x1="233.5" y1="26" x2="241.5" y2="51" gradientUnits="userSpaceOnUse">
<stop stop-color="#A6CE35"/>
<stop offset="0.503125" stop-color="#9CCB39"/>
<stop offset="1" stop-color="#92C73C"/>
</linearGradient>
<linearGradient id="paint5_linear" x1="423" y1="399.5" x2="-13" y2="392" gradientUnits="userSpaceOnUse">
<stop stop-color="#3DBD20"/>
<stop offset="0.1791" stop-color="#3DBD20"/>
<stop offset="0.280525" stop-color="#3DBD20"/>
<stop offset="0.482292" stop-color="#3DBD20"/>
<stop offset="0.747917" stop-color="#3DBD20"/>
<stop offset="1" stop-color="#3DBD20"/>
</linearGradient>
</defs>
</svg>
